<svg version="1.1" id="Layer_1" xmlns="http://www.w3.org/2000/svg" xmlns:xlink="http://www.w3.org/1999/xlink" x="0px" y="0px"
	 width="100%" viewBox="0 0 777 318" enable-background="new 0 0 777 318" xml:space="preserve">
<path fill="#000000" opacity="1.000000" stroke="none" 
	d="
M583.000000,319.000000 
	C388.710907,319.000000 194.921783,319.000000 1.066339,319.000000 
	C1.066339,213.068451 1.066339,107.136841 1.066339,1.102618 
	C259.999969,1.102618 519.000000,1.102618 777.977600,1.102618 
	C777.977600,107.078247 777.977600,213.039124 777.977600,319.000000 
	C713.136780,319.000000 648.318420,319.000000 583.000000,319.000000 
M763.973572,297.071625 
	C763.982361,239.543930 763.995728,182.016235 763.992310,124.488548 
	C763.992004,119.338486 763.882690,114.188423 763.941223,108.539459 
	C763.913452,108.370903 763.885742,108.202339 763.994019,107.101135 
	C763.994019,99.856903 763.994019,92.612663 763.994019,85.212875 
	C756.173340,85.212875 749.077454,85.212875 741.052429,85.104668 
	C726.061279,85.168335 711.070190,85.232002 695.147278,85.111534 
	C683.763916,85.141220 672.380493,85.170906 660.064941,85.104034 
	C645.072205,85.177048 630.079468,85.250053 614.157288,85.119186 
	C604.992126,85.096504 595.826538,85.116844 586.662354,85.008461 
	C585.149353,84.990578 583.642883,84.409004 582.848633,84.021988 
	C583.895813,83.684364 584.942932,83.346733 586.783997,82.783127 
	C597.910583,81.250320 609.037170,79.717522 620.761292,78.698784 
	C626.245850,78.120651 631.734863,77.580933 637.213989,76.955421 
	C645.638184,75.993690 654.074951,75.107658 662.464355,73.897942 
	C665.089844,73.519363 667.579895,72.200958 670.983337,71.151237 
	C682.429749,69.547981 693.876099,67.944733 705.685547,67.039864 
	C706.072327,67.317093 706.496033,67.875931 706.840637,67.830833 
	C718.901184,66.252235 730.974243,64.747589 742.997375,62.916195 
	C747.024353,62.302788 750.921265,60.835350 755.695740,59.664326 
	C758.414978,59.226166 761.134216,58.788002 764.126282,58.305885 
	C761.844910,45.616756 759.652527,33.422741 757.366150,20.705671 
	C744.985901,22.460886 733.040955,24.154383 720.381714,25.250191 
	C714.907837,25.811401 709.422241,26.277475 703.962646,26.954071 
	C693.319885,28.273022 682.687256,29.677628 672.064636,31.149456 
	C671.043884,31.290884 670.123230,32.154041 668.270447,32.871201 
	C657.513000,34.321278 646.755554,35.771358 635.454285,36.654491 
	C634.995667,36.480419 634.511414,36.106518 634.082214,36.161591 
	C624.267212,37.420952 614.432068,38.559475 604.657288,40.083710 
	C598.177124,41.094193 591.785034,42.669617 584.510864,44.256245 
	C573.451416,45.776382 562.391968,47.296520 550.577271,48.265736 
	C550.086121,48.186161 549.580383,47.986580 549.106018,48.044460 
	C535.315063,49.727066 521.517212,51.360790 507.748749,53.212769 
	C505.445587,53.522564 503.272186,54.797344 500.188171,55.785145 
	C488.773438,57.367565 477.358734,58.949986 465.116058,60.141018 
	C464.292206,60.094044 463.452118,59.918102 462.646942,60.019447 
	C450.719330,61.520695 438.783539,62.967743 426.880066,64.643379 
	C423.298279,65.147568 419.809418,66.311821 415.470795,67.328743 
	C413.735535,67.676636 412.000275,68.024529 410.198212,68.385811 
	C409.568634,75.434303 408.929230,82.187492 408.375336,88.947678 
	C408.048248,92.939171 406.482758,97.234673 409.967438,100.119820 
	C409.701752,100.806595 409.207916,101.491997 409.203796,102.180328 
	C409.106049,118.488670 409.052734,134.797318 409.008301,151.105927 
	C408.943939,174.739578 408.892975,198.373276 408.131256,221.614731 
	C407.750702,218.880325 407.730377,216.035355 406.930542,213.429642 
	C402.085724,197.646286 393.063263,185.864975 376.045532,181.969696 
	C366.171875,179.709656 356.349304,178.609436 346.100830,179.841812 
	C332.609741,181.464127 320.972809,186.699982 313.332062,197.630249 
	C300.002991,216.697876 299.235779,237.562363 309.202972,258.309753 
	C316.431702,273.356903 329.053131,281.445007 345.998108,281.962372 
	C353.319366,282.185913 360.661377,282.221680 367.979462,281.950867 
	C380.977661,281.469849 391.882996,276.297546 400.173706,266.210266 
	C403.031403,262.733276 405.226959,258.712067 408.284485,254.094452 
	C398.612335,253.307770 390.329468,253.336029 382.364563,251.758682 
	C376.261810,250.550110 372.095703,251.315872 367.401611,255.705780 
	C362.495117,260.294312 356.403564,261.557556 348.745239,257.293213 
	C342.964081,254.074112 339.636108,247.826706 340.488800,240.992294 
	C363.246796,240.992294 386.040588,240.992294 408.980682,241.920380 
	C408.989288,259.270996 408.970551,276.621735 409.051544,293.972015 
	C409.059082,295.589050 409.697998,297.203125 410.963959,298.969879 
	C527.281311,298.979858 643.598694,298.993103 759.916016,298.958344 
	C761.221191,298.957947 762.526245,298.332703 763.973572,297.071625 
M71.776627,142.000473 
	C70.028534,142.333588 68.294098,142.812469 66.530273,142.977753 
	C43.911777,145.097290 26.845583,158.856812 19.069843,180.513672 
	C15.048823,191.712952 14.686462,203.437851 14.852675,215.293259 
	C15.000501,225.837128 15.975723,236.125443 20.074413,245.833084 
	C26.815924,261.800201 37.127014,274.711060 54.461201,279.605560 
	C66.744507,283.073944 79.421677,283.976074 92.325287,282.126495 
	C106.245842,280.131134 117.500153,274.127319 125.992935,262.971588 
	C132.219482,254.792633 135.627258,245.380707 137.904968,235.367111 
	C127.144821,231.882431 116.416183,228.601257 105.852180,224.855759 
	C103.087440,223.875519 102.667755,224.388977 101.911224,226.876740 
	C100.568268,231.292862 98.964401,235.681702 96.954590,239.832550 
	C92.267479,249.512848 83.500992,250.794861 74.149208,249.929047 
	C67.176750,249.283508 62.245384,245.247711 59.003365,239.097153 
	C55.733349,232.893494 55.786816,226.070297 54.729645,219.360672 
	C53.202709,209.669586 54.702103,200.473114 57.160736,191.447952 
	C60.056335,180.818726 68.072250,174.868927 78.822395,174.207581 
	C87.100586,173.698288 96.316208,179.114410 99.902344,189.278854 
	C101.053558,192.541809 101.855682,193.535614 105.674217,192.304016 
	C112.848373,189.990158 120.309441,188.461792 127.737396,187.065353 
	C136.940353,185.335220 137.249695,185.427277 133.923447,177.162262 
	C128.440460,163.538162 120.265877,152.079468 105.967255,146.508621 
	C95.299561,142.352417 84.058929,141.649612 71.776627,142.000473 
M197.000214,232.500000 
	C197.000214,248.259155 197.000214,264.018311 197.000214,279.718018 
	C209.302933,279.718018 221.039017,279.718018 232.999786,279.718018 
	C232.999786,263.967041 232.834457,248.493973 233.097763,233.028183 
	C233.179688,228.214920 233.693146,223.154984 235.325424,218.689102 
	C237.191498,213.583496 241.760300,208.915451 249.090820,209.976898 
	C253.552444,210.622925 257.648254,214.856949 257.910522,220.706940 
	C258.525665,234.427841 258.709229,248.169128 258.980530,261.903900 
	C259.097809,267.841980 259.000183,273.784302 259.000183,279.747925 
	C271.242157,279.747925 282.977570,279.747925 294.999817,279.747925 
	C294.999817,259.703705 295.155029,239.908096 294.907806,220.117493 
	C294.830902,213.959686 294.299683,207.664032 292.876801,201.693542 
	C288.659882,183.999023 274.660706,178.438660 260.491486,179.169617 
	C248.385193,179.794174 238.453491,185.555176 230.772461,196.702499 
	C230.772461,191.016342 230.772461,186.601044 230.772461,182.291733 
	C219.343979,182.291733 208.274170,182.291733 197.000214,182.291733 
	C197.000214,198.888260 197.000214,215.194122 197.000214,232.500000 
M182.999481,184.677902 
	C182.221573,183.785873 181.455353,182.129074 180.664001,182.116989 
	C169.554794,181.947296 158.442154,182.001785 147.230835,182.001785 
	C147.230835,214.862213 147.230835,247.265106 147.230835,279.765808 
	C159.200439,279.765808 170.938187,279.765808 182.999756,279.765808 
	C182.999756,248.239243 182.999756,216.945572 182.999481,184.677902 
M181.290283,144.004181 
	C169.878708,144.004181 158.467133,144.004181 147.365036,144.004181 
	C147.365036,153.467987 147.365036,162.210953 147.365036,170.631409 
	C159.471527,170.631409 171.211975,170.631409 182.255783,170.631409 
	C182.255783,161.523331 182.255783,152.790039 181.290283,144.004181 
z"/>
<path fill="#EA8F1A" opacity="1.000000" stroke="none" 
	d="
M410.043762,298.818573 
	C409.697998,297.203125 409.059082,295.589050 409.051544,293.972015 
	C408.970551,276.621735 408.989288,259.270996 408.971680,240.992157 
	C408.920563,234.044922 408.878418,228.025940 408.836273,222.006943 
	C408.892975,198.373276 408.943939,174.739578 409.008301,151.105927 
	C409.052734,134.797318 409.106049,118.488670 409.203796,102.180328 
	C409.207916,101.491997 409.701752,100.806595 410.486359,100.618118 
	C411.005280,108.695824 411.005280,116.275238 411.005280,124.109673 
	C414.588440,124.109673 417.436371,123.832726 420.207977,124.174522 
	C424.374268,124.688316 426.923309,123.057228 429.176056,119.594391 
	C432.797333,114.027863 436.960510,108.815117 440.861450,103.428757 
	C442.989471,100.490372 444.706787,97.104919 449.382019,97.926750 
	C450.158081,98.063164 451.187347,96.759117 452.099609,96.120735 
	C444.995087,95.615669 440.771698,91.497543 436.513794,87.124519 
	C429.907166,80.339272 423.036621,73.810951 416.277985,67.173706 
	C419.809418,66.311821 423.298279,65.147568 426.880066,64.643379 
	C438.783539,62.967743 450.719330,61.520695 462.646942,60.019447 
	C463.452118,59.918102 464.292206,60.094044 465.744995,60.460621 
	C466.373901,60.780224 466.608612,61.213963 466.459351,61.365215 
	C466.463257,61.795658 466.699219,61.932869 467.166504,62.227966 
	C477.771942,73.407982 488.228790,84.288124 498.538086,95.014702 
	C493.342529,94.042351 490.996979,98.512573 488.198059,102.407532 
	C484.315643,107.810265 480.358887,113.159554 476.442078,118.537636 
	C475.256073,120.166122 474.096924,121.814178 472.456543,124.109337 
	C483.781921,124.109337 493.926300,124.232010 504.061646,123.984444 
	C505.685730,123.944771 507.745697,122.615593 508.791046,121.256935 
	C513.961426,114.536972 518.921265,107.651131 523.821350,100.728920 
	C525.770447,97.975418 527.374084,94.977386 529.106689,92.059952 
	C529.078369,92.029228 529.022339,92.091232 529.314331,92.280266 
	C529.778503,92.313828 529.950623,92.158356 530.369629,91.855804 
	C530.831360,91.177834 531.046204,90.646935 531.604858,90.058014 
	C532.628357,89.854073 533.308044,89.708153 534.257812,89.577408 
	C534.349060,89.071571 534.170166,88.550568 533.843018,87.730942 
	C522.809387,76.830292 511.924133,66.228256 501.038849,55.626221 
	C503.272186,54.797344 505.445587,53.522564 507.748749,53.212769 
	C521.517212,51.360790 535.315063,49.727066 549.106018,48.044460 
	C549.580383,47.986580 550.086121,48.186161 550.915771,48.831390 
	C560.808350,58.954350 570.333130,68.541237 579.941895,78.043182 
	C581.788818,79.869568 583.965515,81.362396 585.990112,83.009109 
	C584.942932,83.346733 583.895813,83.684364 582.081543,84.048492 
	C578.912109,84.510139 576.509827,84.945282 573.933472,85.411942 
	C576.190247,85.995567 578.169617,86.507454 580.045227,87.355026 
	C571.299072,99.584175 562.656677,111.477654 553.474060,124.114586 
	C564.981018,124.114586 575.420532,124.152405 585.858765,124.054077 
	C586.865173,124.044609 588.242004,123.465500 588.808960,122.686501 
	C597.599976,110.607445 606.285583,98.451668 615.037231,86.067711 
	C615.078857,85.821815 615.086731,85.323067 615.086731,85.323059 
	C630.079468,85.250053 645.072205,85.177048 660.683044,85.368759 
	C661.585266,85.841797 661.869385,86.050117 661.977539,86.530212 
	C652.864868,99.013634 643.928162,111.225266 634.496643,124.113152 
	C645.809692,124.113152 655.931641,124.167007 666.051636,124.047455 
	C667.370667,124.031868 669.217834,123.517906 669.910828,122.569962 
	C678.709290,110.534126 687.341187,98.376564 696.045776,86.012375 
	C696.076172,85.774757 696.079041,85.295670 696.079041,85.295670 
	C711.070190,85.232002 726.061279,85.168335 741.642700,85.566193 
	C742.321594,86.297882 742.410095,86.568054 742.372559,87.132057 
	C733.541870,99.434509 724.837280,111.443123 715.654114,124.111954 
	C727.017395,124.111954 737.306580,124.216942 747.588684,123.994339 
	C749.064331,123.962387 750.878601,122.655113 751.895752,121.413475 
	C755.461853,117.060417 758.747986,112.477974 762.427063,107.974380 
	C763.095093,107.988678 763.476562,108.011230 763.857971,108.033783 
	C763.885742,108.202339 763.913452,108.370903 763.559082,109.001289 
	C762.784668,111.512688 762.051575,113.561905 762.049500,115.611877 
	C761.986877,176.405838 761.996765,237.199875 761.526978,297.996582 
	C646.144592,297.999481 531.230408,297.995392 416.316162,298.034088 
	C414.225281,298.034790 412.134552,298.545715 410.043762,298.818573 
M648.978821,279.737488 
	C659.574463,279.737488 670.170105,279.737488 681.309753,279.737488 
	C681.309753,275.411591 681.309753,271.388123 681.309753,268.114380 
	C686.625122,272.028229 691.424927,277.029907 697.290100,279.605804 
	C714.834412,287.310852 734.136475,279.123962 742.324829,260.621918 
	C750.549866,242.036942 750.956726,222.734406 744.065857,203.715378 
	C737.413452,185.354263 719.229553,176.013718 700.647217,181.169785 
	C694.798157,182.792709 689.529602,186.507690 683.699219,189.412750 
	C683.699219,174.929993 683.699219,160.192978 683.699219,145.263641 
	C671.698059,145.263641 660.176208,145.263641 648.647522,145.263641 
	C648.487793,146.094223 648.315369,146.571472 648.315674,147.048630 
	C648.343201,191.032440 648.384155,235.016251 648.978821,279.737488 
M484.698853,211.698196 
	C489.014252,215.332138 489.256714,220.358047 489.269745,225.398712 
	C489.311951,241.730591 489.285614,258.062653 489.285675,274.394623 
	C489.285675,276.166687 489.285706,277.938751 489.285706,279.757629 
	C501.235413,279.757629 512.508728,279.757629 523.892029,279.757629 
	C523.892029,255.404251 524.566162,231.268539 523.615662,207.196976 
	C523.119263,194.626419 516.464172,184.477600 503.267365,181.091660 
	C491.206512,177.997162 479.787109,179.925934 469.886566,188.074142 
	C467.770752,189.815475 465.740662,191.660950 462.847839,194.173462 
	C462.847839,177.100418 462.847839,161.070450 462.847839,145.307251 
	C451.044983,145.307251 439.811523,145.307251 428.546844,145.307251 
	C428.546844,190.315659 428.546844,234.912369 428.546844,279.631775 
	C440.182373,279.631775 451.553375,279.631775 463.103943,279.631775 
	C463.103943,264.102295 462.981415,248.941635 463.177612,233.785095 
	C463.237366,229.165283 463.665466,224.425507 464.814758,219.970230 
	C467.289856,210.375427 475.138153,207.019363 484.698853,211.698196 
M569.474548,282.100708 
	C583.184875,282.746796 592.920959,275.585999 601.799011,264.147766 
	C601.799011,270.418732 601.799011,274.985291 601.799011,279.646790 
	C612.791138,279.646790 623.337280,279.646790 633.872192,279.646790 
	C633.872192,247.026031 633.872192,214.759048 633.872192,182.392853 
	C622.285889,182.392853 610.932312,182.392853 599.290344,182.392853 
	C599.290344,184.594040 599.300171,186.409576 599.288818,188.224960 
	C599.193787,203.380753 599.149048,218.537231 598.948547,233.691650 
	C598.911499,236.492615 598.499817,239.350754 597.812012,242.068909 
	C596.001160,249.225235 590.104065,253.598297 583.644714,252.864975 
	C577.457031,252.162460 573.341675,247.450226 573.190674,239.708527 
	C572.901489,224.884277 573.036865,210.051666 573.001587,195.222534 
	C572.991394,190.941559 573.000000,186.660538 573.000000,182.284515 
	C561.069092,182.284515 549.669556,182.284515 538.135559,182.284515 
	C538.135559,205.525864 537.241028,228.528778 538.400940,251.427612 
	C539.446289,272.064240 550.334778,281.995239 569.474548,282.100708 
z"/>
<path fill="#FFFFFF" opacity="1.000000" stroke="none" 
	d="
M72.251236,142.000397 
	C84.058929,141.649612 95.299561,142.352417 105.967255,146.508621 
	C120.265877,152.079468 128.440460,163.538162 133.923447,177.162262 
	C137.249695,185.427277 136.940353,185.335220 127.737396,187.065353 
	C120.309441,188.461792 112.848373,189.990158 105.674217,192.304016 
	C101.855682,193.535614 101.053558,192.541809 99.902344,189.278854 
	C96.316208,179.114410 87.100586,173.698288 78.822395,174.207581 
	C68.072250,174.868927 60.056335,180.818726 57.160736,191.447952 
	C54.702103,200.473114 53.202709,209.669586 54.729645,219.360672 
	C55.786816,226.070297 55.733349,232.893494 59.003365,239.097153 
	C62.245384,245.247711 67.176750,249.283508 74.149208,249.929047 
	C83.500992,250.794861 92.267479,249.512848 96.954590,239.832550 
	C98.964401,235.681702 100.568268,231.292862 101.911224,226.876740 
	C102.667755,224.388977 103.087440,223.875519 105.852180,224.855759 
	C116.416183,228.601257 127.144821,231.882431 137.904968,235.367111 
	C135.627258,245.380707 132.219482,254.792633 125.992935,262.971588 
	C117.500153,274.127319 106.245842,280.131134 92.325287,282.126495 
	C79.421677,283.976074 66.744507,283.073944 54.461201,279.605560 
	C37.127014,274.711060 26.815924,261.800201 20.074413,245.833084 
	C15.975723,236.125443 15.000501,225.837128 14.852675,215.293259 
	C14.686462,203.437851 15.048823,191.712952 19.069843,180.513672 
	C26.845583,158.856812 43.911777,145.097290 66.530273,142.977753 
	C68.294098,142.812469 70.028534,142.333588 72.251236,142.000397 
z"/>
<path fill="#FFFFFF" opacity="1.000000" stroke="none" 
	d="
M408.483765,221.810837 
	C408.878418,228.025940 408.920563,234.044922 408.898529,240.528107 
	C386.040588,240.992294 363.246796,240.992294 340.488800,240.992294 
	C339.636108,247.826706 342.964081,254.074112 348.745239,257.293213 
	C356.403564,261.557556 362.495117,260.294312 367.401611,255.705780 
	C372.095703,251.315872 376.261810,250.550110 382.364563,251.758682 
	C390.329468,253.336029 398.612335,253.307770 408.284485,254.094452 
	C405.226959,258.712067 403.031403,262.733276 400.173706,266.210266 
	C391.882996,276.297546 380.977661,281.469849 367.979462,281.950867 
	C360.661377,282.221680 353.319366,282.185913 345.998108,281.962372 
	C329.053131,281.445007 316.431702,273.356903 309.202972,258.309753 
	C299.235779,237.562363 300.002991,216.697876 313.332062,197.630249 
	C320.972809,186.699982 332.609741,181.464127 346.100830,179.841812 
	C356.349304,178.609436 366.171875,179.709656 376.045532,181.969696 
	C393.063263,185.864975 402.085724,197.646286 406.930542,213.429642 
	C407.730377,216.035355 407.750702,218.880325 408.483765,221.810837 
M371.974548,215.850372 
	C370.064819,212.574768 368.753937,208.668106 366.113525,206.162537 
	C361.448822,201.736099 355.212097,201.503082 349.768005,204.250015 
	C342.962036,207.684082 340.426117,214.201477 339.893372,221.693237 
	C351.203369,221.693237 362.045502,221.693237 373.147980,221.693237 
	C372.711273,219.792953 372.355072,218.242966 371.974548,215.850372 
z"/>
<path fill="#FFFFFF" opacity="1.000000" stroke="none" 
	d="
M197.000214,232.000000 
	C197.000214,215.194122 197.000214,198.888260 197.000214,182.291733 
	C208.274170,182.291733 219.343979,182.291733 230.772461,182.291733 
	C230.772461,186.601044 230.772461,191.016342 230.772461,196.702499 
	C238.453491,185.555176 248.385193,179.794174 260.491486,179.169617 
	C274.660706,178.438660 288.659882,183.999023 292.876801,201.693542 
	C294.299683,207.664032 294.830902,213.959686 294.907806,220.117493 
	C295.155029,239.908096 294.999817,259.703705 294.999817,279.747925 
	C282.977570,279.747925 271.242157,279.747925 259.000183,279.747925 
	C259.000183,273.784302 259.097809,267.841980 258.980530,261.903900 
	C258.709229,248.169128 258.525665,234.427841 257.910522,220.706940 
	C257.648254,214.856949 253.552444,210.622925 249.090820,209.976898 
	C241.760300,208.915451 237.191498,213.583496 235.325424,218.689102 
	C233.693146,223.154984 233.179688,228.214920 233.097763,233.028183 
	C232.834457,248.493973 232.999786,263.967041 232.999786,279.718018 
	C221.039017,279.718018 209.302933,279.718018 197.000214,279.718018 
	C197.000214,264.018311 197.000214,248.259155 197.000214,232.000000 
z"/>
<path fill="#FFFFFF" opacity="1.000000" stroke="none" 
	d="
M182.999619,185.164886 
	C182.999756,216.945572 182.999756,248.239243 182.999756,279.765808 
	C170.938187,279.765808 159.200439,279.765808 147.230835,279.765808 
	C147.230835,247.265106 147.230835,214.862213 147.230835,182.001785 
	C158.442154,182.001785 169.554794,181.947296 180.664001,182.116989 
	C181.455353,182.129074 182.221573,183.785873 182.999619,185.164886 
z"/>
<path fill="#FEFDFC" opacity="1.000000" stroke="none" 
	d="
M533.987732,89.562225 
	C533.308044,89.708153 532.628357,89.854073 531.140503,89.991425 
	C523.309753,90.583519 516.195557,90.656532 509.381653,92.457527 
	C509.451080,92.888840 509.520508,93.320160 509.589905,93.751480 
	C516.104919,93.197876 522.619995,92.644279 529.135010,92.090683 
	C527.374084,94.977386 525.770447,97.975418 523.821350,100.728920 
	C518.921265,107.651131 513.961426,114.536972 508.791046,121.256935 
	C507.745697,122.615593 505.685730,123.944771 504.061646,123.984444 
	C493.926300,124.232010 483.781921,124.109337 472.456543,124.109337 
	C474.096924,121.814178 475.256073,120.166122 476.442078,118.537636 
	C480.358887,113.159554 484.315643,107.810265 488.198059,102.407532 
	C490.996979,98.512573 493.342529,94.042351 498.538086,95.014702 
	C488.228790,84.288124 477.771942,73.407982 467.127808,62.092583 
	C466.879486,61.472412 466.768829,61.324623 466.608612,61.213963 
	C466.608612,61.213963 466.373901,60.780224 466.158936,60.656311 
	C477.358734,58.949986 488.773438,57.367565 500.613525,55.705681 
	C511.924133,66.228256 522.809387,76.830292 533.844360,87.986397 
	C533.992004,88.881050 533.989868,89.221634 533.987732,89.562225 
z"/>
<path fill="#E88E1C" opacity="1.000000" stroke="none" 
	d="
M585.353516,43.992157 
	C591.785034,42.669617 598.177124,41.094193 604.657288,40.083710 
	C614.432068,38.559475 624.267212,37.420952 634.082214,36.161591 
	C634.511414,36.106518 634.995667,36.480419 635.855347,37.236732 
	C647.548218,48.983566 658.840027,60.148167 670.131897,71.312759 
	C667.579895,72.200958 665.089844,73.519363 662.464355,73.897942 
	C654.074951,75.107658 645.638184,75.993690 637.213989,76.955421 
	C631.734863,77.580933 626.245850,78.120651 620.474915,78.077560 
	C609.315125,66.664146 598.449951,55.863678 587.544861,45.103603 
	C586.989502,44.555626 586.091797,44.354698 585.353516,43.992157 
z"/>
<path fill="#EA8F1B" opacity="1.000000" stroke="none" 
	d="
M669.156067,32.682171 
	C670.123230,32.154041 671.043884,31.290884 672.064636,31.149456 
	C682.687256,29.677628 693.319885,28.273022 703.962646,26.954071 
	C709.422241,26.277475 714.907837,25.811401 720.827576,25.825645 
	C732.474854,37.520164 743.676208,48.639229 754.877625,59.758293 
	C750.921265,60.835350 747.024353,62.302788 742.997375,62.916195 
	C730.974243,64.747589 718.901184,66.252235 706.840637,67.830833 
	C706.496033,67.875931 706.072327,67.317093 705.365234,66.403923 
	C694.564331,55.317070 684.121155,44.827961 673.544678,34.474964 
	C672.498840,33.451279 670.638428,33.259876 669.156067,32.682171 
z"/>
<path fill="#FCFCFB" opacity="1.000000" stroke="none" 
	d="
M584.932190,44.124207 
	C586.091797,44.354698 586.989502,44.555626 587.544861,45.103603 
	C598.449951,55.863678 609.315125,66.664146 620.176147,77.820534 
	C609.037170,79.717522 597.910583,81.250320 586.387085,82.896118 
	C583.965515,81.362396 581.788818,79.869568 579.941895,78.043182 
	C570.333130,68.541237 560.808350,58.954350 551.293457,49.106850 
	C562.391968,47.296520 573.451416,45.776382 584.932190,44.124207 
z"/>
<path fill="#FCFCFB" opacity="1.000000" stroke="none" 
	d="
M668.713257,32.776691 
	C670.638428,33.259876 672.498840,33.451279 673.544678,34.474964 
	C684.121155,44.827961 694.564331,55.317070 705.183716,66.054733 
	C693.876099,67.944733 682.429749,69.547981 670.557617,71.232002 
	C658.840027,60.148167 647.548218,48.983566 636.127197,37.520203 
	C646.755554,35.771358 657.513000,34.321278 668.713257,32.776691 
z"/>
<path fill="#FDFCFB" opacity="1.000000" stroke="none" 
	d="
M415.874390,67.251221 
	C423.036621,73.810951 429.907166,80.339272 436.513794,87.124519 
	C440.771698,91.497543 444.995087,95.615669 452.099609,96.120735 
	C451.187347,96.759117 450.158081,98.063164 449.382019,97.926750 
	C444.706787,97.104919 442.989471,100.490372 440.861450,103.428757 
	C436.960510,108.815117 432.797333,114.027863 429.176056,119.594391 
	C426.923309,123.057228 424.374268,124.688316 420.207977,124.174522 
	C417.436371,123.832726 414.588440,124.109673 411.005280,124.109673 
	C411.005280,116.275238 411.005280,108.695824 410.889893,100.689896 
	C406.482758,97.234673 408.048248,92.939171 408.375336,88.947678 
	C408.929230,82.187492 409.568634,75.434303 410.198212,68.385811 
	C412.000275,68.024529 413.735535,67.676636 415.874390,67.251221 
z"/>
<path fill="#FFFFFF" opacity="1.000000" stroke="none" 
	d="
M181.773041,144.030457 
	C182.255783,152.790039 182.255783,161.523331 182.255783,170.631409 
	C171.211975,170.631409 159.471527,170.631409 147.365036,170.631409 
	C147.365036,162.210953 147.365036,153.467987 147.365036,144.004181 
	C158.467133,144.004181 169.878708,144.004181 181.773041,144.030457 
z"/>
<path fill="#FAFAF9" opacity="1.000000" stroke="none" 
	d="
M755.286682,59.711311 
	C743.676208,48.639229 732.474854,37.520164 721.184692,26.124489 
	C733.040955,24.154383 744.985901,22.460886 757.366150,20.705671 
	C759.652527,33.422741 761.844910,45.616756 764.126282,58.305885 
	C761.134216,58.788002 758.414978,59.226166 755.286682,59.711311 
z"/>
<path fill="#E79225" opacity="1.000000" stroke="none" 
	d="
M761.995117,297.993896 
	C761.996765,237.199875 761.986877,176.405838 762.049500,115.611877 
	C762.051575,113.561905 762.784668,111.512688 763.500488,109.250740 
	C763.882690,114.188423 763.992004,119.338486 763.992310,124.488548 
	C763.995728,182.016235 763.982361,239.543930 763.596436,297.535156 
	C762.811279,297.997070 762.403198,297.995483 761.995117,297.993896 
z"/>
<path fill="#EC952B" opacity="1.000000" stroke="none" 
	d="
M761.526978,297.996582 
	C762.403198,297.995483 762.811279,297.997070 763.525391,297.998901 
	C762.526245,298.332703 761.221191,298.957947 759.916016,298.958344 
	C643.598694,298.993103 527.281311,298.979858 410.503845,298.894226 
	C412.134552,298.545715 414.225281,298.034790 416.316162,298.034088 
	C531.230408,297.995392 646.144592,297.999481 761.526978,297.996582 
z"/>
<path fill="#B07223" opacity="1.000000" stroke="none" 
	d="
M763.926025,107.567459 
	C763.476562,108.011230 763.095093,107.988678 762.469055,107.509918 
	C762.224426,100.189896 762.224426,93.326073 762.224426,85.961182 
	C754.968079,86.283813 748.733398,86.561020 742.498657,86.838226 
	C742.410095,86.568054 742.321594,86.297882 742.107300,85.620293 
	C749.077454,85.212875 756.173340,85.212875 763.994019,85.212875 
	C763.994019,92.612663 763.994019,99.856903 763.926025,107.567459 
z"/>
<path fill="#B07223" opacity="1.000000" stroke="none" 
	d="
M614.622009,85.221130 
	C615.086731,85.323067 615.078857,85.821815 614.566406,86.041031 
	C607.967346,86.256531 601.878601,86.152451 595.794678,86.279694 
	C590.576599,86.388824 585.364014,86.762596 580.148987,87.019341 
	C578.169617,86.507454 576.190247,85.995567 573.933472,85.411942 
	C576.509827,84.945282 578.912109,84.510139 581.723877,84.081467 
	C583.642883,84.409004 585.149353,84.990578 586.662354,85.008461 
	C595.826538,85.116844 604.992126,85.096504 614.622009,85.221130 
z"/>
<path fill="#B07223" opacity="1.000000" stroke="none" 
	d="
M695.613159,85.203598 
	C696.079041,85.295670 696.076172,85.774757 695.572815,86.009949 
	C684.097473,86.249573 673.125488,86.254021 662.153503,86.258446 
	C661.869385,86.050117 661.585266,85.841797 661.149170,85.417038 
	C672.380493,85.170906 683.763916,85.141220 695.613159,85.203598 
z"/>
<path fill="#040201" opacity="1.000000" stroke="none" 
	d="
M648.701477,279.368774 
	C648.384155,235.016251 648.343201,191.032440 648.315674,147.048630 
	C648.315369,146.571472 648.487793,146.094223 648.647522,145.263641 
	C660.176208,145.263641 671.698059,145.263641 683.699219,145.263641 
	C683.699219,160.192978 683.699219,174.929993 683.699219,189.412750 
	C689.529602,186.507690 694.798157,182.792709 700.647217,181.169785 
	C719.229553,176.013718 737.413452,185.354263 744.065857,203.715378 
	C750.956726,222.734406 750.549866,242.036942 742.324829,260.621918 
	C734.136475,279.123962 714.834412,287.310852 697.290100,279.605804 
	C691.424927,277.029907 686.625122,272.028229 681.309753,268.114380 
	C681.309753,271.388123 681.309753,275.411591 681.309753,279.737488 
	C670.170105,279.737488 659.574463,279.737488 648.701477,279.368774 
M686.823608,247.494705 
	C689.995239,252.604156 694.507568,255.462952 700.574951,254.551285 
	C706.854126,253.607788 710.961731,249.389420 711.857300,243.391144 
	C712.896912,236.428085 713.257324,229.230652 712.787476,222.210251 
	C712.250732,214.189774 706.643127,208.506302 700.386658,208.025269 
	C692.985352,207.456207 686.792542,212.154495 684.647522,220.522125 
	C682.363953,229.430511 682.609558,238.295441 686.823608,247.494705 
z"/>
<path fill="#030201" opacity="1.000000" stroke="none" 
	d="
M484.394012,211.470932 
	C475.138153,207.019363 467.289856,210.375427 464.814758,219.970230 
	C463.665466,224.425507 463.237366,229.165283 463.177612,233.785095 
	C462.981415,248.941635 463.103943,264.102295 463.103943,279.631775 
	C451.553375,279.631775 440.182373,279.631775 428.546844,279.631775 
	C428.546844,234.912369 428.546844,190.315659 428.546844,145.307251 
	C439.811523,145.307251 451.044983,145.307251 462.847839,145.307251 
	C462.847839,161.070450 462.847839,177.100418 462.847839,194.173462 
	C465.740662,191.660950 467.770752,189.815475 469.886566,188.074142 
	C479.787109,179.925934 491.206512,177.997162 503.267365,181.091660 
	C516.464172,184.477600 523.119263,194.626419 523.615662,207.196976 
	C524.566162,231.268539 523.892029,255.404251 523.892029,279.757629 
	C512.508728,279.757629 501.235413,279.757629 489.285706,279.757629 
	C489.285706,277.938751 489.285675,276.166687 489.285675,274.394623 
	C489.285614,258.062653 489.311951,241.730591 489.269745,225.398712 
	C489.256714,220.358047 489.014252,215.332138 484.394012,211.470932 
z"/>
<path fill="#020201" opacity="1.000000" stroke="none" 
	d="
M569.003662,282.100708 
	C550.334778,281.995239 539.446289,272.064240 538.400940,251.427612 
	C537.241028,228.528778 538.135559,205.525864 538.135559,182.284515 
	C549.669556,182.284515 561.069092,182.284515 573.000000,182.284515 
	C573.000000,186.660538 572.991394,190.941559 573.001587,195.222534 
	C573.036865,210.051666 572.901489,224.884277 573.190674,239.708527 
	C573.341675,247.450226 577.457031,252.162460 583.644714,252.864975 
	C590.104065,253.598297 596.001160,249.225235 597.812012,242.068909 
	C598.499817,239.350754 598.911499,236.492615 598.948547,233.691650 
	C599.149048,218.537231 599.193787,203.380753 599.288818,188.224960 
	C599.300171,186.409576 599.290344,184.594040 599.290344,182.392853 
	C610.932312,182.392853 622.285889,182.392853 633.872192,182.392853 
	C633.872192,214.759048 633.872192,247.026031 633.872192,279.646790 
	C623.337280,279.646790 612.791138,279.646790 601.799011,279.646790 
	C601.799011,274.985291 601.799011,270.418732 601.799011,264.147766 
	C592.920959,275.585999 583.184875,282.746796 569.003662,282.100708 
z"/>
<path fill="#FDFCFA" opacity="1.000000" stroke="none" 
	d="
M580.045227,87.355026 
	C585.364014,86.762596 590.576599,86.388824 595.794678,86.279694 
	C601.878601,86.152451 607.967346,86.256531 614.524780,86.286926 
	C606.285583,98.451668 597.599976,110.607445 588.808960,122.686501 
	C588.242004,123.465500 586.865173,124.044609 585.858765,124.054077 
	C575.420532,124.152405 564.981018,124.114586 553.474060,124.114586 
	C562.656677,111.477654 571.299072,99.584175 580.045227,87.355026 
z"/>
<path fill="#FDFCFB" opacity="1.000000" stroke="none" 
	d="
M661.977539,86.530228 
	C673.125488,86.254021 684.097473,86.249573 695.542480,86.247566 
	C687.341187,98.376564 678.709290,110.534126 669.910828,122.569962 
	C669.217834,123.517906 667.370667,124.031868 666.051636,124.047455 
	C655.931641,124.167007 645.809692,124.113152 634.496643,124.113152 
	C643.928162,111.225266 652.864868,99.013634 661.977539,86.530228 
z"/>
<path fill="#FDFDFC" opacity="1.000000" stroke="none" 
	d="
M742.372559,87.132057 
	C748.733398,86.561020 754.968079,86.283813 762.224426,85.961182 
	C762.224426,93.326073 762.224426,100.189896 762.182434,107.518181 
	C758.747986,112.477974 755.461853,117.060417 751.895752,121.413475 
	C750.878601,122.655113 749.064331,123.962387 747.588684,123.994339 
	C737.306580,124.216942 727.017395,124.111954 715.654114,124.111954 
	C724.837280,111.443123 733.541870,99.434509 742.372559,87.132057 
z"/>
<path fill="#C1C0C0" opacity="1.000000" stroke="none" 
	d="
M529.106689,92.059952 
	C522.619995,92.644279 516.104919,93.197876 509.589905,93.751480 
	C509.520508,93.320160 509.451080,92.888840 509.381653,92.457527 
	C516.195557,90.656532 523.309753,90.583519 530.796631,90.049454 
	C531.046204,90.646935 530.831360,91.177834 530.234680,91.699097 
	C529.575989,91.823380 529.299194,91.957314 529.022339,92.091240 
	C529.022339,92.091232 529.078369,92.029228 529.106689,92.059952 
z"/>
<path fill="#FDFCFB" opacity="1.000000" stroke="none" 
	d="
M534.257812,89.577400 
	C533.989868,89.221634 533.992004,88.881050 533.992676,88.285019 
	C534.170166,88.550568 534.349060,89.071571 534.257812,89.577400 
z"/>
<path fill="#FEFDFC" opacity="1.000000" stroke="none" 
	d="
M529.314331,92.280273 
	C529.299194,91.957314 529.575989,91.823380 529.987793,91.846161 
	C529.950623,92.158356 529.778503,92.313828 529.314331,92.280273 
z"/>
<path fill="#FDFCFB" opacity="1.000000" stroke="none" 
	d="
M466.459351,61.365215 
	C466.768829,61.324623 466.879486,61.472412 466.979248,61.792717 
	C466.699219,61.932869 466.463257,61.795658 466.459351,61.365215 
z"/>
<path fill="#000000" opacity="1.000000" stroke="none" 
	d="
M371.986694,216.271667 
	C372.355072,218.242966 372.711273,219.792953 373.147980,221.693237 
	C362.045502,221.693237 351.203369,221.693237 339.893372,221.693237 
	C340.426117,214.201477 342.962036,207.684082 349.768005,204.250015 
	C355.212097,201.503082 361.448822,201.736099 366.113525,206.162537 
	C368.753937,208.668106 370.064819,212.574768 371.986694,216.271667 
z"/>
<path fill="#E78D19" opacity="1.000000" stroke="none" 
	d="
M686.625061,247.174591 
	C682.609558,238.295441 682.363953,229.430511 684.647522,220.522125 
	C686.792542,212.154495 692.985352,207.456207 700.386658,208.025269 
	C706.643127,208.506302 712.250732,214.189774 712.787476,222.210251 
	C713.257324,229.230652 712.896912,236.428085 711.857300,243.391144 
	C710.961731,249.389420 706.854126,253.607788 700.574951,254.551285 
	C694.507568,255.462952 689.995239,252.604156 686.625061,247.174591 
z"/>
</svg>