<?xml version="1.0" standalone="no"?>
<!DOCTYPE svg PUBLIC "-//W3C//DTD SVG 20010904//EN"
 "http://www.w3.org/TR/2001/REC-SVG-20010904/DTD/svg10.dtd">
<svg version="1.0" xmlns="http://www.w3.org/2000/svg"
 width="1200.000000pt" height="424.000000pt" viewBox="0 0 1200.000000 424.000000"
 preserveAspectRatio="xMidYMid meet">

<g transform="translate(0.000000,424.000000) scale(0.100000,-0.100000)"
fill="#000000" stroke="none">
<path d="M0 2120 l0 -2120 6000 0 6000 0 0 2120 0 2120 -6000 0 -6000 0 0
-2120z m11221 1488 c61 -18 115 -70 139 -134 20 -55 20 -60 18 -1372 l-3
-1317 -22 -40 c-27 -51 -68 -90 -115 -109 -33 -14 -271 -16 -2240 -16 -1467 0
-2218 4 -2248 11 -71 16 -114 50 -147 116 l-28 58 0 1320 0 1320 30 54 c17 30
42 63 56 73 67 49 -49 47 2313 48 1648 0 2219 -3 2247 -12z m-9519 -463 c108
-16 222 -56 297 -105 68 -43 171 -154 220 -237 40 -68 108 -229 100 -237 -8
-8 -473 -126 -477 -121 -3 3 -15 29 -27 58 -29 72 -67 120 -124 156 -150 96
-353 44 -446 -115 -51 -86 -68 -180 -67 -374 0 -336 65 -493 224 -546 69 -23
207 -16 264 13 83 44 146 139 181 276 10 37 22 67 27 67 16 0 460 -141 468
-149 9 -9 -26 -133 -61 -219 -88 -214 -263 -374 -466 -426 -243 -63 -579 -32
-765 71 -121 67 -254 222 -327 381 -121 260 -135 685 -32 978 99 286 324 476
619 524 41 6 82 13 90 15 44 8 218 3 302 -10z m1278 -190 l0 -185 -250 0 -250
0 0 185 0 185 250 0 250 0 0 -185z m2633 -300 c118 -21 203 -53 281 -109 171
-122 260 -317 273 -602 l6 -131 -204 -6 c-112 -4 -333 -7 -491 -7 -159 0 -288
-2 -288 -5 0 -23 26 -117 41 -146 75 -149 270 -172 390 -47 l47 49 233 -21
c129 -11 237 -22 242 -23 18 -5 -75 -138 -148 -213 -84 -86 -137 -118 -245
-152 -218 -67 -565 -50 -723 35 -70 38 -166 130 -216 206 -93 143 -126 279
-119 491 4 125 8 152 36 233 68 201 209 351 390 415 135 47 335 61 495 33z
m-1353 -21 c137 -37 225 -139 272 -312 19 -71 21 -115 27 -582 4 -278 5 -508
3 -512 -2 -5 -112 -8 -246 -8 l-243 0 -6 212 c-4 116 -7 300 -7 409 0 110 -5
222 -11 251 -30 139 -189 182 -284 77 -62 -69 -65 -95 -65 -551 l0 -408 -244
0 -244 0 -6 263 c-3 144 -8 458 -11 698 l-5 436 137 6 c75 4 178 7 230 7 l93
0 0 -67 c0 -38 3 -85 6 -105 l7 -38 63 69 c101 109 183 153 315 170 75 10 143
5 219 -15z m-1276 -286 c3 -145 7 -461 8 -703 l3 -440 -247 -3 -248 -2 0 173
c0 96 -3 410 -7 699 -6 512 -6 526 13 531 10 2 121 5 245 6 l227 1 6 -262z"/>
<path d="M6990 2190 l0 -910 179 0 180 0 3 428 c3 417 4 428 26 484 76 189
349 229 440 64 15 -28 17 -80 20 -503 l3 -473 180 0 180 0 -3 498 c-5 550 -6
562 -71 671 -37 61 -112 120 -196 152 -148 57 -430 25 -552 -62 l-29 -20 0
290 0 291 -180 0 -180 0 0 -910z"/>
<path d="M9810 2190 l0 -910 165 0 165 0 0 45 c0 25 2 45 4 45 3 0 26 -14 51
-31 110 -74 308 -109 457 -79 150 29 295 144 367 291 66 136 76 186 76 399 0
145 -4 199 -18 250 -74 275 -276 429 -563 430 -111 0 -223 -27 -308 -73 l-61
-34 10 289 10 288 -177 0 -178 0 0 -910z m726 155 c132 -39 203 -179 204 -401
0 -158 -28 -259 -94 -332 -100 -111 -276 -107 -379 7 -65 72 -90 142 -102 286
-8 96 7 220 36 284 59 134 195 198 335 156z"/>
<path d="M8402 2088 l3 -513 26 -67 c32 -82 66 -128 127 -173 73 -53 145 -76
248 -82 162 -10 291 25 400 108 l64 48 0 -64 0 -65 165 0 165 0 0 660 0 660
-175 0 -175 0 0 -332 c0 -396 -10 -541 -40 -604 -70 -144 -286 -191 -391 -85
-20 20 -42 54 -49 76 -9 29 -14 171 -17 493 l-5 452 -175 0 -174 0 3 -512z"/>
<path d="M5357 2336 c-37 -14 -67 -35 -95 -66 -24 -28 -60 -115 -67 -162 l-7
-48 241 0 241 0 -4 23 c-30 147 -61 204 -127 237 -53 28 -133 35 -182 16z"/>
</g>
</svg>
