<svg id="svg" version="1.1" xmlns="http://www.w3.org/2000/svg" xmlns:xlink="http://www.w3.org/1999/xlink" width="400" height="141.33333333333334" viewBox="0, 0, 400,141.33333333333334"><g id="svgg"><path id="path0" d="M45.833 36.000 C 45.833 36.095,45.333 36.167,44.667 36.167 C 44.000 36.167,43.500 36.238,43.500 36.333 C 43.500 36.425,43.125 36.500,42.667 36.500 C 42.208 36.500,41.833 36.575,41.833 36.667 C 41.833 36.758,41.533 36.833,41.167 36.833 C 40.800 36.833,40.500 36.908,40.500 37.000 C 40.500 37.092,40.200 37.167,39.833 37.167 C 39.467 37.167,39.167 37.242,39.167 37.333 C 39.167 37.425,38.942 37.500,38.667 37.500 C 38.392 37.500,38.167 37.575,38.167 37.667 C 38.167 37.758,38.017 37.833,37.833 37.833 C 37.650 37.833,37.500 37.908,37.500 38.000 C 37.500 38.092,37.275 38.167,37.000 38.167 C 36.725 38.167,36.500 38.242,36.500 38.333 C 36.500 38.425,36.350 38.500,36.167 38.500 C 35.983 38.500,35.833 38.575,35.833 38.667 C 35.833 38.758,35.683 38.833,35.500 38.833 C 35.317 38.833,35.167 38.908,35.167 39.000 C 35.167 39.092,35.017 39.167,34.833 39.167 C 34.650 39.167,34.500 39.242,34.500 39.333 C 34.500 39.425,34.367 39.500,34.203 39.500 C 34.040 39.500,33.799 39.650,33.667 39.833 C 33.535 40.017,33.310 40.167,33.167 40.167 C 33.024 40.167,32.799 40.317,32.667 40.500 C 32.535 40.683,32.323 40.833,32.197 40.833 C 32.070 40.833,31.757 41.058,31.500 41.333 C 31.243 41.608,30.950 41.833,30.848 41.833 C 30.606 41.833,27.500 44.939,27.500 45.181 C 27.500 45.283,27.275 45.576,27.000 45.833 C 26.725 46.090,26.500 46.390,26.500 46.500 C 26.500 46.610,26.275 46.910,26.000 47.167 C 25.725 47.424,25.500 47.754,25.500 47.900 C 25.500 48.047,25.425 48.167,25.333 48.167 C 25.242 48.167,25.167 48.300,25.167 48.463 C 25.167 48.626,25.017 48.868,24.833 49.000 C 24.650 49.132,24.500 49.374,24.500 49.537 C 24.500 49.700,24.425 49.833,24.333 49.833 C 24.242 49.833,24.167 49.983,24.167 50.167 C 24.167 50.350,24.092 50.500,24.000 50.500 C 23.908 50.500,23.833 50.725,23.833 51.000 C 23.833 51.275,23.758 51.500,23.667 51.500 C 23.575 51.500,23.500 51.650,23.500 51.833 C 23.500 52.017,23.425 52.167,23.333 52.167 C 23.242 52.167,23.167 52.317,23.167 52.500 C 23.167 52.683,23.092 52.833,23.000 52.833 C 22.908 52.833,22.833 53.058,22.833 53.333 C 22.833 53.608,22.758 53.833,22.667 53.833 C 22.575 53.833,22.500 54.058,22.500 54.333 C 22.500 54.608,22.425 54.833,22.333 54.833 C 22.242 54.833,22.167 55.133,22.167 55.500 C 22.167 55.867,22.092 56.167,22.000 56.167 C 21.908 56.167,21.833 56.467,21.833 56.833 C 21.833 57.200,21.758 57.500,21.667 57.500 C 21.575 57.500,21.500 57.800,21.500 58.167 C 21.500 58.533,21.425 58.833,21.333 58.833 C 21.241 58.833,21.167 59.278,21.167 59.833 C 21.167 60.389,21.093 60.833,21.000 60.833 C 20.901 60.833,20.833 61.444,20.833 62.333 C 20.833 63.222,20.765 63.833,20.667 63.833 C 20.559 63.833,20.500 65.667,20.500 69.000 C 20.500 72.333,20.559 74.167,20.667 74.167 C 20.765 74.167,20.833 74.778,20.833 75.667 C 20.833 76.556,20.901 77.167,21.000 77.167 C 21.093 77.167,21.167 77.611,21.167 78.167 C 21.167 78.722,21.241 79.167,21.333 79.167 C 21.425 79.167,21.500 79.542,21.500 80.000 C 21.500 80.458,21.575 80.833,21.667 80.833 C 21.758 80.833,21.833 81.133,21.833 81.500 C 21.833 81.867,21.908 82.167,22.000 82.167 C 22.092 82.167,22.167 82.392,22.167 82.667 C 22.167 82.942,22.242 83.167,22.333 83.167 C 22.425 83.167,22.500 83.392,22.500 83.667 C 22.500 83.942,22.575 84.167,22.667 84.167 C 22.758 84.167,22.833 84.392,22.833 84.667 C 22.833 84.942,22.908 85.167,23.000 85.167 C 23.092 85.167,23.167 85.392,23.167 85.667 C 23.167 85.942,23.242 86.167,23.333 86.167 C 23.425 86.167,23.500 86.317,23.500 86.500 C 23.500 86.683,23.575 86.833,23.667 86.833 C 23.758 86.833,23.833 86.983,23.833 87.167 C 23.833 87.350,23.908 87.500,24.000 87.500 C 24.092 87.500,24.167 87.650,24.167 87.833 C 24.167 88.017,24.242 88.167,24.333 88.167 C 24.425 88.167,24.500 88.317,24.500 88.500 C 24.500 88.683,24.575 88.833,24.667 88.833 C 24.758 88.833,24.833 88.967,24.833 89.130 C 24.833 89.293,24.983 89.535,25.167 89.667 C 25.350 89.799,25.500 90.040,25.500 90.203 C 25.500 90.367,25.575 90.500,25.667 90.500 C 25.758 90.500,25.833 90.633,25.833 90.797 C 25.833 90.960,25.983 91.201,26.167 91.333 C 26.350 91.465,26.500 91.677,26.500 91.803 C 26.500 91.930,26.725 92.243,27.000 92.500 C 27.275 92.757,27.500 93.055,27.500 93.163 C 27.500 93.271,27.800 93.648,28.167 94.000 C 28.533 94.352,28.833 94.723,28.833 94.823 C 28.833 95.063,31.273 97.500,31.514 97.500 C 31.616 97.500,31.910 97.725,32.167 98.000 C 32.424 98.275,32.737 98.500,32.863 98.500 C 32.990 98.500,33.201 98.650,33.333 98.833 C 33.465 99.017,33.690 99.167,33.833 99.167 C 33.976 99.167,34.201 99.317,34.333 99.500 C 34.465 99.683,34.707 99.833,34.870 99.833 C 35.033 99.833,35.167 99.908,35.167 100.000 C 35.167 100.092,35.317 100.167,35.500 100.167 C 35.683 100.167,35.833 100.242,35.833 100.333 C 35.833 100.425,35.983 100.500,36.167 100.500 C 36.350 100.500,36.500 100.575,36.500 100.667 C 36.500 100.758,36.725 100.833,37.000 100.833 C 37.275 100.833,37.500 100.908,37.500 101.000 C 37.500 101.092,37.650 101.167,37.833 101.167 C 38.017 101.167,38.167 101.242,38.167 101.333 C 38.167 101.425,38.392 101.500,38.667 101.500 C 38.942 101.500,39.167 101.575,39.167 101.667 C 39.167 101.758,39.467 101.833,39.833 101.833 C 40.200 101.833,40.500 101.908,40.500 102.000 C 40.500 102.092,40.800 102.167,41.167 102.167 C 41.533 102.167,41.833 102.242,41.833 102.333 C 41.833 102.426,42.278 102.500,42.833 102.500 C 43.389 102.500,43.833 102.574,43.833 102.667 C 43.833 102.765,44.444 102.833,45.333 102.833 C 46.222 102.833,46.833 102.901,46.833 103.000 C 46.833 103.107,48.389 103.167,51.167 103.167 C 53.944 103.167,55.500 103.107,55.500 103.000 C 55.500 102.903,56.056 102.833,56.833 102.833 C 57.611 102.833,58.167 102.764,58.167 102.667 C 58.167 102.575,58.542 102.500,59.000 102.500 C 59.458 102.500,59.833 102.425,59.833 102.333 C 59.833 102.242,60.133 102.167,60.500 102.167 C 60.867 102.167,61.167 102.092,61.167 102.000 C 61.167 101.908,61.392 101.833,61.667 101.833 C 61.942 101.833,62.167 101.758,62.167 101.667 C 62.167 101.575,62.392 101.500,62.667 101.500 C 62.942 101.500,63.167 101.425,63.167 101.333 C 63.167 101.242,63.392 101.167,63.667 101.167 C 63.942 101.167,64.167 101.092,64.167 101.000 C 64.167 100.908,64.317 100.833,64.500 100.833 C 64.683 100.833,64.833 100.758,64.833 100.667 C 64.833 100.575,64.983 100.500,65.167 100.500 C 65.350 100.500,65.500 100.425,65.500 100.333 C 65.500 100.242,65.633 100.167,65.797 100.167 C 65.960 100.167,66.201 100.017,66.333 99.833 C 66.465 99.650,66.690 99.500,66.833 99.500 C 66.976 99.500,67.201 99.350,67.333 99.167 C 67.465 98.983,67.690 98.833,67.833 98.833 C 67.976 98.833,68.201 98.683,68.333 98.500 C 68.465 98.317,68.670 98.167,68.789 98.167 C 69.051 98.167,72.500 94.746,72.500 94.485 C 72.500 94.384,72.725 94.090,73.000 93.833 C 73.275 93.576,73.500 93.263,73.500 93.137 C 73.500 93.010,73.650 92.799,73.833 92.667 C 74.017 92.535,74.167 92.293,74.167 92.130 C 74.167 91.967,74.242 91.833,74.333 91.833 C 74.425 91.833,74.500 91.700,74.500 91.537 C 74.500 91.374,74.650 91.132,74.833 91.000 C 75.017 90.868,75.167 90.626,75.167 90.463 C 75.167 90.300,75.242 90.167,75.333 90.167 C 75.425 90.167,75.500 90.017,75.500 89.833 C 75.500 89.650,75.575 89.500,75.667 89.500 C 75.758 89.500,75.833 89.350,75.833 89.167 C 75.833 88.983,75.908 88.833,76.000 88.833 C 76.092 88.833,76.167 88.608,76.167 88.333 C 76.167 88.058,76.242 87.833,76.333 87.833 C 76.425 87.833,76.500 87.683,76.500 87.500 C 76.500 87.317,76.575 87.167,76.667 87.167 C 76.758 87.167,76.833 86.942,76.833 86.667 C 76.833 86.392,76.908 86.167,77.000 86.167 C 77.092 86.167,77.167 85.942,77.167 85.667 C 77.167 85.392,77.242 85.167,77.333 85.167 C 77.425 85.167,77.500 84.942,77.500 84.667 C 77.500 84.392,77.575 84.167,77.667 84.167 C 77.758 84.167,77.833 83.867,77.833 83.500 C 77.833 83.133,77.908 82.833,78.000 82.833 C 78.092 82.833,78.167 82.533,78.167 82.167 C 78.167 81.800,78.242 81.500,78.333 81.500 C 78.425 81.500,78.500 81.125,78.500 80.667 C 78.500 79.944,78.456 79.833,78.167 79.833 C 77.983 79.833,77.833 79.758,77.833 79.667 C 77.833 79.575,77.533 79.500,77.167 79.500 C 76.800 79.500,76.500 79.425,76.500 79.333 C 76.500 79.242,76.275 79.167,76.000 79.167 C 75.725 79.167,75.500 79.092,75.500 79.000 C 75.500 78.908,75.275 78.833,75.000 78.833 C 74.725 78.833,74.500 78.758,74.500 78.667 C 74.500 78.575,74.275 78.500,74.000 78.500 C 73.725 78.500,73.500 78.425,73.500 78.333 C 73.500 78.242,73.275 78.167,73.000 78.167 C 72.725 78.167,72.500 78.092,72.500 78.000 C 72.500 77.908,72.275 77.833,72.000 77.833 C 71.725 77.833,71.500 77.758,71.500 77.667 C 71.500 77.575,71.275 77.500,71.000 77.500 C 70.725 77.500,70.500 77.425,70.500 77.333 C 70.500 77.242,70.200 77.167,69.833 77.167 C 69.467 77.167,69.167 77.092,69.167 77.000 C 69.167 76.908,68.942 76.833,68.667 76.833 C 68.392 76.833,68.167 76.758,68.167 76.667 C 68.167 76.575,67.942 76.500,67.667 76.500 C 67.392 76.500,67.167 76.425,67.167 76.333 C 67.167 76.242,66.942 76.167,66.667 76.167 C 66.392 76.167,66.167 76.092,66.167 76.000 C 66.167 75.908,65.942 75.833,65.667 75.833 C 65.392 75.833,65.167 75.758,65.167 75.667 C 65.167 75.575,64.942 75.500,64.667 75.500 C 64.392 75.500,64.167 75.425,64.167 75.333 C 64.167 75.242,63.942 75.167,63.667 75.167 C 63.392 75.167,63.167 75.092,63.167 75.000 C 63.167 74.908,62.867 74.833,62.500 74.833 C 61.870 74.833,61.833 74.861,61.833 75.333 C 61.833 75.608,61.758 75.833,61.667 75.833 C 61.575 75.833,61.500 76.133,61.500 76.500 C 61.500 76.867,61.425 77.167,61.333 77.167 C 61.242 77.167,61.167 77.467,61.167 77.833 C 61.167 78.200,61.092 78.500,61.000 78.500 C 60.908 78.500,60.833 78.725,60.833 79.000 C 60.833 79.275,60.758 79.500,60.667 79.500 C 60.575 79.500,60.500 79.725,60.500 80.000 C 60.500 80.275,60.425 80.500,60.333 80.500 C 60.242 80.500,60.167 80.650,60.167 80.833 C 60.167 81.017,60.092 81.167,60.000 81.167 C 59.908 81.167,59.833 81.317,59.833 81.500 C 59.833 81.683,59.758 81.833,59.667 81.833 C 59.575 81.833,59.500 81.967,59.500 82.130 C 59.500 82.293,59.350 82.535,59.167 82.667 C 58.983 82.799,58.833 83.024,58.833 83.167 C 58.833 83.310,58.683 83.535,58.500 83.667 C 58.317 83.799,58.167 84.005,58.167 84.126 C 58.167 84.410,57.077 85.500,56.792 85.500 C 56.672 85.500,56.465 85.650,56.333 85.833 C 56.201 86.017,55.960 86.167,55.797 86.167 C 55.633 86.167,55.500 86.242,55.500 86.333 C 55.500 86.425,55.350 86.500,55.167 86.500 C 54.983 86.500,54.833 86.575,54.833 86.667 C 54.833 86.758,54.608 86.833,54.333 86.833 C 54.058 86.833,53.833 86.908,53.833 87.000 C 53.833 87.092,53.533 87.167,53.167 87.167 C 52.800 87.167,52.500 87.242,52.500 87.333 C 52.500 87.435,51.722 87.500,50.500 87.500 C 49.278 87.500,48.500 87.435,48.500 87.333 C 48.500 87.242,48.200 87.167,47.833 87.167 C 47.467 87.167,47.167 87.092,47.167 87.000 C 47.167 86.908,46.942 86.833,46.667 86.833 C 46.392 86.833,46.167 86.758,46.167 86.667 C 46.167 86.575,46.033 86.500,45.870 86.500 C 45.707 86.500,45.465 86.350,45.333 86.167 C 45.201 85.983,44.996 85.833,44.877 85.833 C 44.574 85.833,42.167 83.393,42.167 83.086 C 42.167 82.947,42.092 82.833,42.000 82.833 C 41.908 82.833,41.833 82.683,41.833 82.500 C 41.833 82.317,41.758 82.167,41.667 82.167 C 41.575 82.167,41.500 82.017,41.500 81.833 C 41.500 81.650,41.425 81.500,41.333 81.500 C 41.242 81.500,41.167 81.350,41.167 81.167 C 41.167 80.983,41.092 80.833,41.000 80.833 C 40.908 80.833,40.833 80.608,40.833 80.333 C 40.833 80.058,40.758 79.833,40.667 79.833 C 40.575 79.833,40.500 79.533,40.500 79.167 C 40.500 78.800,40.425 78.500,40.333 78.500 C 40.242 78.500,40.167 78.125,40.167 77.667 C 40.167 77.208,40.092 76.833,40.000 76.833 C 39.905 76.833,39.833 76.333,39.833 75.667 C 39.833 75.000,39.762 74.500,39.667 74.500 C 39.559 74.500,39.500 72.611,39.500 69.167 C 39.500 65.722,39.559 63.833,39.667 63.833 C 39.759 63.833,39.833 63.389,39.833 62.833 C 39.833 62.278,39.907 61.833,40.000 61.833 C 40.092 61.833,40.167 61.458,40.167 61.000 C 40.167 60.542,40.242 60.167,40.333 60.167 C 40.425 60.167,40.500 59.942,40.500 59.667 C 40.500 59.392,40.575 59.167,40.667 59.167 C 40.758 59.167,40.833 58.942,40.833 58.667 C 40.833 58.392,40.908 58.167,41.000 58.167 C 41.092 58.167,41.167 58.017,41.167 57.833 C 41.167 57.650,41.242 57.500,41.333 57.500 C 41.425 57.500,41.500 57.367,41.500 57.203 C 41.500 57.040,41.650 56.799,41.833 56.667 C 42.017 56.535,42.167 56.330,42.167 56.211 C 42.167 55.908,45.275 52.833,45.581 52.833 C 45.720 52.833,45.833 52.758,45.833 52.667 C 45.833 52.575,45.983 52.500,46.167 52.500 C 46.350 52.500,46.500 52.425,46.500 52.333 C 46.500 52.242,46.650 52.167,46.833 52.167 C 47.017 52.167,47.167 52.092,47.167 52.000 C 47.167 51.908,47.467 51.833,47.833 51.833 C 48.200 51.833,48.500 51.758,48.500 51.667 C 48.500 51.563,49.389 51.500,50.833 51.500 C 52.278 51.500,53.167 51.563,53.167 51.667 C 53.167 51.758,53.392 51.833,53.667 51.833 C 53.942 51.833,54.167 51.908,54.167 52.000 C 54.167 52.092,54.392 52.167,54.667 52.167 C 54.942 52.167,55.167 52.242,55.167 52.333 C 55.167 52.425,55.300 52.500,55.463 52.500 C 55.626 52.500,55.868 52.650,56.000 52.833 C 56.132 53.017,56.338 53.167,56.457 53.167 C 56.576 53.167,57.159 53.653,57.753 54.247 C 58.347 54.841,58.833 55.424,58.833 55.543 C 58.833 55.662,58.983 55.868,59.167 56.000 C 59.350 56.132,59.500 56.374,59.500 56.537 C 59.500 56.700,59.575 56.833,59.667 56.833 C 59.758 56.833,59.833 56.983,59.833 57.167 C 59.833 57.350,59.908 57.500,60.000 57.500 C 60.092 57.500,60.167 57.650,60.167 57.833 C 60.167 58.017,60.242 58.167,60.333 58.167 C 60.425 58.167,60.500 58.392,60.500 58.667 C 60.500 58.942,60.575 59.167,60.667 59.167 C 60.758 59.167,60.833 59.392,60.833 59.667 L 60.833 60.167 61.833 60.167 C 62.389 60.167,62.833 60.093,62.833 60.000 C 62.833 59.908,63.133 59.833,63.500 59.833 C 63.867 59.833,64.167 59.758,64.167 59.667 C 64.167 59.575,64.467 59.500,64.833 59.500 C 65.200 59.500,65.500 59.425,65.500 59.333 C 65.500 59.242,65.800 59.167,66.167 59.167 C 66.533 59.167,66.833 59.092,66.833 59.000 C 66.833 58.908,67.133 58.833,67.500 58.833 C 67.867 58.833,68.167 58.758,68.167 58.667 C 68.167 58.575,68.392 58.500,68.667 58.500 C 68.942 58.500,69.167 58.425,69.167 58.333 C 69.167 58.242,69.467 58.167,69.833 58.167 C 70.200 58.167,70.500 58.092,70.500 58.000 C 70.500 57.908,70.800 57.833,71.167 57.833 C 71.533 57.833,71.833 57.758,71.833 57.667 C 71.833 57.575,72.133 57.500,72.500 57.500 C 72.867 57.500,73.167 57.425,73.167 57.333 C 73.167 57.242,73.467 57.167,73.833 57.167 C 74.200 57.167,74.500 57.092,74.500 57.000 C 74.500 56.908,74.800 56.833,75.167 56.833 C 75.533 56.833,75.833 56.758,75.833 56.667 C 75.833 56.575,76.133 56.500,76.500 56.500 C 76.867 56.500,77.167 56.425,77.167 56.333 C 77.167 56.242,77.317 56.167,77.500 56.167 C 77.722 56.167,77.833 56.056,77.833 55.833 C 77.833 55.650,77.758 55.500,77.667 55.500 C 77.575 55.500,77.500 55.275,77.500 55.000 C 77.500 54.725,77.425 54.500,77.333 54.500 C 77.242 54.500,77.167 54.275,77.167 54.000 C 77.167 53.725,77.092 53.500,77.000 53.500 C 76.908 53.500,76.833 53.275,76.833 53.000 C 76.833 52.725,76.758 52.500,76.667 52.500 C 76.575 52.500,76.500 52.350,76.500 52.167 C 76.500 51.983,76.425 51.833,76.333 51.833 C 76.242 51.833,76.167 51.683,76.167 51.500 C 76.167 51.317,76.092 51.167,76.000 51.167 C 75.908 51.167,75.833 50.942,75.833 50.667 C 75.833 50.392,75.758 50.167,75.667 50.167 C 75.575 50.167,75.500 50.017,75.500 49.833 C 75.500 49.650,75.425 49.500,75.333 49.500 C 75.242 49.500,75.167 49.350,75.167 49.167 C 75.167 48.983,75.092 48.833,75.000 48.833 C 74.908 48.833,74.833 48.700,74.833 48.537 C 74.833 48.374,74.683 48.132,74.500 48.000 C 74.317 47.868,74.167 47.626,74.167 47.463 C 74.167 47.300,74.092 47.167,74.000 47.167 C 73.908 47.167,73.833 47.033,73.833 46.870 C 73.833 46.707,73.683 46.465,73.500 46.333 C 73.317 46.201,73.167 45.990,73.167 45.863 C 73.167 45.737,72.942 45.424,72.667 45.167 C 72.392 44.910,72.167 44.616,72.167 44.515 C 72.167 44.413,71.380 43.543,70.419 42.581 C 69.457 41.620,68.587 40.833,68.485 40.833 C 68.384 40.833,68.090 40.608,67.833 40.333 C 67.576 40.058,67.263 39.833,67.137 39.833 C 67.010 39.833,66.799 39.683,66.667 39.500 C 66.535 39.317,66.293 39.167,66.130 39.167 C 65.967 39.167,65.833 39.092,65.833 39.000 C 65.833 38.908,65.683 38.833,65.500 38.833 C 65.317 38.833,65.167 38.758,65.167 38.667 C 65.167 38.575,65.017 38.500,64.833 38.500 C 64.650 38.500,64.500 38.425,64.500 38.333 C 64.500 38.242,64.350 38.167,64.167 38.167 C 63.983 38.167,63.833 38.092,63.833 38.000 C 63.833 37.908,63.608 37.833,63.333 37.833 C 63.058 37.833,62.833 37.758,62.833 37.667 C 62.833 37.575,62.608 37.500,62.333 37.500 C 62.058 37.500,61.833 37.425,61.833 37.333 C 61.833 37.242,61.608 37.167,61.333 37.167 C 61.058 37.167,60.833 37.092,60.833 37.000 C 60.833 36.908,60.533 36.833,60.167 36.833 C 59.800 36.833,59.500 36.758,59.500 36.667 C 59.500 36.575,59.200 36.500,58.833 36.500 C 58.467 36.500,58.167 36.425,58.167 36.333 C 58.167 36.238,57.667 36.167,57.000 36.167 C 56.333 36.167,55.833 36.095,55.833 36.000 C 55.833 35.893,54.056 35.833,50.833 35.833 C 47.611 35.833,45.833 35.893,45.833 36.000 M94.833 36.333 C 94.833 36.441,92.667 36.500,88.667 36.500 L 82.500 36.500 82.500 43.000 L 82.500 49.500 83.167 49.500 C 83.533 49.500,83.833 49.425,83.833 49.333 C 83.833 49.225,86.556 49.167,91.667 49.167 L 99.500 49.167 99.500 42.667 L 99.500 36.167 97.167 36.167 C 95.722 36.167,94.833 36.230,94.833 36.333 M175.833 52.333 C 175.833 52.426,175.389 52.500,174.833 52.500 C 174.278 52.500,173.833 52.574,173.833 52.667 C 173.833 52.758,173.533 52.833,173.167 52.833 C 172.800 52.833,172.500 52.908,172.500 53.000 C 172.500 53.092,172.200 53.167,171.833 53.167 C 171.467 53.167,171.167 53.242,171.167 53.333 C 171.167 53.425,170.942 53.500,170.667 53.500 C 170.392 53.500,170.167 53.575,170.167 53.667 C 170.167 53.758,170.017 53.833,169.833 53.833 C 169.650 53.833,169.500 53.908,169.500 54.000 C 169.500 54.092,169.275 54.167,169.000 54.167 C 168.725 54.167,168.500 54.242,168.500 54.333 C 168.500 54.425,168.350 54.500,168.167 54.500 C 167.983 54.500,167.833 54.575,167.833 54.667 C 167.833 54.758,167.700 54.833,167.537 54.833 C 167.374 54.833,167.132 54.983,167.000 55.167 C 166.868 55.350,166.626 55.500,166.463 55.500 C 166.300 55.500,166.167 55.575,166.167 55.667 C 166.167 55.758,166.047 55.833,165.900 55.833 C 165.754 55.833,165.424 56.058,165.167 56.333 C 164.910 56.608,164.616 56.833,164.514 56.833 C 164.273 56.833,161.167 59.939,161.167 60.181 C 161.167 60.283,160.942 60.576,160.667 60.833 C 160.392 61.090,160.167 61.404,160.167 61.530 C 160.167 61.656,160.017 61.868,159.833 62.000 C 159.650 62.132,159.500 62.374,159.500 62.537 C 159.500 62.700,159.425 62.833,159.333 62.833 C 159.242 62.833,159.167 62.983,159.167 63.167 C 159.167 63.350,159.092 63.500,159.000 63.500 C 158.908 63.500,158.833 63.650,158.833 63.833 C 158.833 64.017,158.758 64.167,158.667 64.167 C 158.575 64.167,158.500 64.317,158.500 64.500 C 158.500 64.683,158.425 64.833,158.333 64.833 C 158.242 64.833,158.167 64.983,158.167 65.167 C 158.167 65.350,158.092 65.500,158.000 65.500 C 157.908 65.500,157.833 65.650,157.833 65.833 C 157.833 66.017,157.758 66.167,157.667 66.167 C 157.575 66.167,157.500 66.392,157.500 66.667 C 157.500 66.942,157.425 67.167,157.333 67.167 C 157.242 67.167,157.167 67.392,157.167 67.667 C 157.167 67.942,157.092 68.167,157.000 68.167 C 156.908 68.167,156.833 68.467,156.833 68.833 C 156.833 69.200,156.758 69.500,156.667 69.500 C 156.575 69.500,156.500 69.875,156.500 70.333 C 156.500 70.792,156.425 71.167,156.333 71.167 C 156.235 71.167,156.167 71.778,156.167 72.667 C 156.167 73.556,156.099 74.167,156.000 74.167 C 155.896 74.167,155.833 75.167,155.833 76.833 C 155.833 78.500,155.896 79.500,156.000 79.500 C 156.099 79.500,156.167 80.111,156.167 81.000 C 156.167 81.889,156.235 82.500,156.333 82.500 C 156.425 82.500,156.500 82.875,156.500 83.333 C 156.500 83.792,156.575 84.167,156.667 84.167 C 156.758 84.167,156.833 84.467,156.833 84.833 C 156.833 85.200,156.908 85.500,157.000 85.500 C 157.092 85.500,157.167 85.725,157.167 86.000 C 157.167 86.275,157.242 86.500,157.333 86.500 C 157.425 86.500,157.500 86.725,157.500 87.000 C 157.500 87.275,157.575 87.500,157.667 87.500 C 157.758 87.500,157.833 87.650,157.833 87.833 C 157.833 88.017,157.908 88.167,158.000 88.167 C 158.092 88.167,158.167 88.392,158.167 88.667 C 158.167 88.942,158.242 89.167,158.333 89.167 C 158.425 89.167,158.500 89.317,158.500 89.500 C 158.500 89.683,158.575 89.833,158.667 89.833 C 158.758 89.833,158.833 89.967,158.833 90.130 C 158.833 90.293,158.983 90.535,159.167 90.667 C 159.350 90.799,159.500 91.040,159.500 91.203 C 159.500 91.367,159.575 91.500,159.667 91.500 C 159.758 91.500,159.833 91.633,159.833 91.797 C 159.833 91.960,159.983 92.201,160.167 92.333 C 160.350 92.465,160.500 92.677,160.500 92.803 C 160.500 92.930,160.725 93.243,161.000 93.500 C 161.275 93.757,161.500 94.051,161.500 94.153 C 161.500 94.395,164.272 97.167,164.514 97.167 C 164.616 97.167,164.910 97.392,165.167 97.667 C 165.424 97.942,165.737 98.167,165.863 98.167 C 165.990 98.167,166.201 98.317,166.333 98.500 C 166.465 98.683,166.707 98.833,166.870 98.833 C 167.033 98.833,167.167 98.908,167.167 99.000 C 167.167 99.092,167.317 99.167,167.500 99.167 C 167.683 99.167,167.833 99.242,167.833 99.333 C 167.833 99.425,167.983 99.500,168.167 99.500 C 168.350 99.500,168.500 99.575,168.500 99.667 C 168.500 99.758,168.725 99.833,169.000 99.833 C 169.275 99.833,169.500 99.908,169.500 100.000 C 169.500 100.092,169.725 100.167,170.000 100.167 C 170.275 100.167,170.500 100.242,170.500 100.333 C 170.500 100.425,170.725 100.500,171.000 100.500 C 171.275 100.500,171.500 100.575,171.500 100.667 C 171.500 100.758,171.875 100.833,172.333 100.833 C 172.792 100.833,173.167 100.908,173.167 101.000 C 173.167 101.093,173.611 101.167,174.167 101.167 C 174.722 101.167,175.167 101.241,175.167 101.333 C 175.167 101.441,177.111 101.500,180.667 101.500 C 184.222 101.500,186.167 101.441,186.167 101.333 C 186.167 101.238,186.667 101.167,187.333 101.167 C 188.000 101.167,188.500 101.095,188.500 101.000 C 188.500 100.908,188.875 100.833,189.333 100.833 C 189.792 100.833,190.167 100.758,190.167 100.667 C 190.167 100.575,190.467 100.500,190.833 100.500 C 191.200 100.500,191.500 100.425,191.500 100.333 C 191.500 100.242,191.800 100.167,192.167 100.167 C 192.533 100.167,192.833 100.092,192.833 100.000 C 192.833 99.908,193.058 99.833,193.333 99.833 C 193.608 99.833,193.833 99.758,193.833 99.667 C 193.833 99.575,193.983 99.500,194.167 99.500 C 194.350 99.500,194.500 99.425,194.500 99.333 C 194.500 99.242,194.650 99.167,194.833 99.167 C 195.017 99.167,195.167 99.092,195.167 99.000 C 195.167 98.908,195.317 98.833,195.500 98.833 C 195.683 98.833,195.833 98.758,195.833 98.667 C 195.833 98.575,195.967 98.500,196.130 98.500 C 196.293 98.500,196.535 98.350,196.667 98.167 C 196.799 97.983,197.024 97.833,197.167 97.833 C 197.310 97.833,197.535 97.683,197.667 97.500 C 197.799 97.317,198.004 97.167,198.122 97.167 C 198.384 97.167,201.833 93.746,201.833 93.485 C 201.833 93.384,202.058 93.090,202.333 92.833 C 202.608 92.576,202.833 92.263,202.833 92.137 C 202.833 92.010,202.983 91.799,203.167 91.667 C 203.350 91.535,203.500 91.293,203.500 91.130 C 203.500 90.967,203.575 90.833,203.667 90.833 C 203.758 90.833,203.833 90.700,203.833 90.537 C 203.833 90.374,203.983 90.132,204.167 90.000 C 204.350 89.868,204.500 89.626,204.500 89.463 C 204.500 89.300,204.575 89.167,204.667 89.167 C 204.758 89.167,204.833 89.017,204.833 88.833 C 204.833 88.650,204.908 88.500,205.000 88.500 C 205.092 88.500,205.167 88.275,205.167 88.000 C 205.167 87.511,205.148 87.500,204.333 87.500 C 203.875 87.500,203.500 87.425,203.500 87.333 C 203.500 87.232,202.778 87.167,201.667 87.167 C 200.556 87.167,199.833 87.101,199.833 87.000 C 199.833 86.899,199.111 86.833,198.000 86.833 C 196.889 86.833,196.167 86.768,196.167 86.667 C 196.167 86.566,195.444 86.500,194.333 86.500 C 193.222 86.500,192.500 86.434,192.500 86.333 C 192.500 86.231,191.690 86.167,190.405 86.167 C 188.311 86.167,187.833 86.289,187.833 86.825 C 187.833 87.083,186.052 88.833,185.790 88.833 C 185.671 88.833,185.465 88.983,185.333 89.167 C 185.201 89.350,184.960 89.500,184.797 89.500 C 184.633 89.500,184.500 89.575,184.500 89.667 C 184.500 89.758,184.275 89.833,184.000 89.833 C 183.725 89.833,183.500 89.908,183.500 90.000 C 183.500 90.092,183.125 90.167,182.667 90.167 C 182.208 90.167,181.833 90.242,181.833 90.333 C 181.833 90.425,181.533 90.500,181.167 90.500 C 180.800 90.500,180.500 90.425,180.500 90.333 C 180.500 90.242,180.200 90.167,179.833 90.167 C 179.467 90.167,179.167 90.092,179.167 90.000 C 179.167 89.908,178.942 89.833,178.667 89.833 C 178.392 89.833,178.167 89.758,178.167 89.667 C 178.167 89.575,178.047 89.500,177.900 89.500 C 177.754 89.500,177.424 89.275,177.167 89.000 C 176.910 88.725,176.612 88.500,176.505 88.500 C 176.253 88.500,175.833 88.081,175.833 87.829 C 175.833 87.722,175.608 87.424,175.333 87.167 C 175.058 86.910,174.833 86.580,174.833 86.433 C 174.833 86.287,174.758 86.167,174.667 86.167 C 174.575 86.167,174.500 86.017,174.500 85.833 C 174.500 85.650,174.425 85.500,174.333 85.500 C 174.242 85.500,174.167 85.275,174.167 85.000 C 174.167 84.725,174.092 84.500,174.000 84.500 C 173.908 84.500,173.833 84.275,173.833 84.000 C 173.833 83.725,173.758 83.500,173.667 83.500 C 173.575 83.500,173.500 83.125,173.500 82.667 L 173.500 81.833 174.667 81.833 C 175.333 81.833,175.833 81.762,175.833 81.667 C 175.833 81.557,180.667 81.500,190.000 81.500 C 199.333 81.500,204.167 81.443,204.167 81.333 C 204.167 81.241,204.611 81.167,205.167 81.167 L 206.167 81.167 206.167 79.333 C 206.167 78.222,206.101 77.500,206.000 77.500 C 205.897 77.500,205.833 76.667,205.833 75.333 C 205.833 74.000,205.769 73.167,205.667 73.167 C 205.571 73.167,205.500 72.667,205.500 72.000 C 205.500 71.333,205.429 70.833,205.333 70.833 C 205.242 70.833,205.167 70.458,205.167 70.000 C 205.167 69.542,205.092 69.167,205.000 69.167 C 204.908 69.167,204.833 68.867,204.833 68.500 C 204.833 68.133,204.758 67.833,204.667 67.833 C 204.575 67.833,204.500 67.608,204.500 67.333 C 204.500 67.058,204.425 66.833,204.333 66.833 C 204.242 66.833,204.167 66.608,204.167 66.333 C 204.167 66.058,204.092 65.833,204.000 65.833 C 203.908 65.833,203.833 65.608,203.833 65.333 C 203.833 65.058,203.758 64.833,203.667 64.833 C 203.575 64.833,203.500 64.683,203.500 64.500 C 203.500 64.317,203.425 64.167,203.333 64.167 C 203.242 64.167,203.167 64.017,203.167 63.833 C 203.167 63.650,203.092 63.500,203.000 63.500 C 202.908 63.500,202.833 63.350,202.833 63.167 C 202.833 62.983,202.758 62.833,202.667 62.833 C 202.575 62.833,202.500 62.700,202.500 62.537 C 202.500 62.374,202.350 62.132,202.167 62.000 C 201.983 61.868,201.833 61.643,201.833 61.500 C 201.833 61.357,201.683 61.132,201.500 61.000 C 201.317 60.868,201.167 60.658,201.167 60.533 C 201.167 60.409,200.867 60.019,200.500 59.667 C 200.133 59.314,199.833 58.943,199.833 58.841 C 199.833 58.600,198.733 57.500,198.492 57.500 C 198.391 57.500,198.019 57.200,197.667 56.833 C 197.314 56.467,196.924 56.167,196.800 56.167 C 196.675 56.167,196.465 56.017,196.333 55.833 C 196.201 55.650,195.976 55.500,195.833 55.500 C 195.690 55.500,195.465 55.350,195.333 55.167 C 195.201 54.983,194.960 54.833,194.797 54.833 C 194.633 54.833,194.500 54.758,194.500 54.667 C 194.500 54.575,194.350 54.500,194.167 54.500 C 193.983 54.500,193.833 54.425,193.833 54.333 C 193.833 54.242,193.608 54.167,193.333 54.167 C 193.058 54.167,192.833 54.092,192.833 54.000 C 192.833 53.908,192.683 53.833,192.500 53.833 C 192.317 53.833,192.167 53.758,192.167 53.667 C 192.167 53.575,191.942 53.500,191.667 53.500 C 191.392 53.500,191.167 53.425,191.167 53.333 C 191.167 53.242,190.867 53.167,190.500 53.167 C 190.133 53.167,189.833 53.092,189.833 53.000 C 189.833 52.908,189.458 52.833,189.000 52.833 C 188.542 52.833,188.167 52.758,188.167 52.667 C 188.167 52.574,187.722 52.500,187.167 52.500 C 186.611 52.500,186.167 52.426,186.167 52.333 C 186.167 52.226,184.333 52.167,181.000 52.167 C 177.667 52.167,175.833 52.226,175.833 52.333 M134.833 52.667 C 134.833 52.759,134.389 52.833,133.833 52.833 C 133.278 52.833,132.833 52.907,132.833 53.000 C 132.833 53.092,132.533 53.167,132.167 53.167 C 131.800 53.167,131.500 53.242,131.500 53.333 C 131.500 53.425,131.275 53.500,131.000 53.500 C 130.725 53.500,130.500 53.575,130.500 53.667 C 130.500 53.758,130.275 53.833,130.000 53.833 C 129.725 53.833,129.500 53.908,129.500 54.000 C 129.500 54.092,129.350 54.167,129.167 54.167 C 128.983 54.167,128.833 54.242,128.833 54.333 C 128.833 54.425,128.700 54.500,128.537 54.500 C 128.374 54.500,128.132 54.650,128.000 54.833 C 127.868 55.017,127.656 55.167,127.530 55.167 C 127.404 55.167,127.090 55.392,126.833 55.667 C 126.576 55.942,126.283 56.167,126.181 56.167 C 125.944 56.167,123.167 58.936,123.167 59.172 C 123.167 59.352,122.422 60.167,122.258 60.167 C 122.208 60.167,122.167 58.742,122.167 57.000 L 122.167 53.833 114.167 53.833 L 106.167 53.833 106.167 62.667 C 106.167 68.444,106.224 71.500,106.333 71.500 C 106.443 71.500,106.500 76.333,106.500 85.667 C 106.500 95.000,106.557 99.833,106.667 99.833 C 106.758 99.833,106.833 100.208,106.833 100.667 L 106.833 101.500 110.167 101.500 C 112.278 101.500,113.500 101.439,113.500 101.333 C 113.500 101.226,115.333 101.167,118.667 101.167 L 123.833 101.167 123.833 99.667 C 123.833 98.778,123.765 98.167,123.667 98.167 C 123.557 98.167,123.500 94.111,123.500 86.333 C 123.500 78.556,123.557 74.500,123.667 74.500 C 123.759 74.500,123.833 74.056,123.833 73.500 C 123.833 72.944,123.907 72.500,124.000 72.500 C 124.092 72.500,124.167 72.275,124.167 72.000 C 124.167 71.725,124.242 71.500,124.333 71.500 C 124.425 71.500,124.500 71.350,124.500 71.167 C 124.500 70.983,124.575 70.833,124.667 70.833 C 124.758 70.833,124.833 70.700,124.833 70.537 C 124.833 70.374,124.983 70.132,125.167 70.000 C 125.350 69.868,125.500 69.660,125.500 69.539 C 125.500 69.253,126.253 68.500,126.539 68.500 C 126.660 68.500,126.868 68.350,127.000 68.167 C 127.141 67.971,127.431 67.833,127.703 67.833 C 127.958 67.833,128.167 67.758,128.167 67.667 C 128.167 67.567,128.833 67.500,129.833 67.500 C 130.833 67.500,131.500 67.567,131.500 67.667 C 131.500 67.758,131.633 67.833,131.797 67.833 C 131.960 67.833,132.201 67.983,132.333 68.167 C 132.465 68.350,132.675 68.500,132.799 68.500 C 133.089 68.500,133.500 68.911,133.500 69.201 C 133.500 69.325,133.650 69.535,133.833 69.667 C 134.017 69.799,134.167 70.040,134.167 70.203 C 134.167 70.367,134.242 70.500,134.333 70.500 C 134.425 70.500,134.500 70.800,134.500 71.167 C 134.500 71.533,134.575 71.833,134.667 71.833 C 134.759 71.833,134.833 72.278,134.833 72.833 C 134.833 73.389,134.907 73.833,135.000 73.833 C 135.110 73.833,135.167 78.111,135.167 86.333 C 135.167 94.556,135.224 98.833,135.333 98.833 C 135.429 98.833,135.500 99.333,135.500 100.000 L 135.500 101.167 138.667 101.167 C 140.667 101.167,141.833 101.105,141.833 101.000 C 141.833 100.892,143.722 100.833,147.167 100.833 L 152.500 100.833 152.500 95.500 C 152.500 92.056,152.441 90.167,152.333 90.167 C 152.224 90.167,152.167 86.389,152.167 79.167 C 152.167 71.944,152.109 68.167,152.000 68.167 C 151.901 68.167,151.833 67.556,151.833 66.667 C 151.833 65.778,151.765 65.167,151.667 65.167 C 151.575 65.167,151.500 64.792,151.500 64.333 C 151.500 63.875,151.425 63.500,151.333 63.500 C 151.242 63.500,151.167 63.200,151.167 62.833 C 151.167 62.467,151.092 62.167,151.000 62.167 C 150.908 62.167,150.833 61.942,150.833 61.667 C 150.833 61.392,150.758 61.167,150.667 61.167 C 150.575 61.167,150.500 61.017,150.500 60.833 C 150.500 60.650,150.425 60.500,150.333 60.500 C 150.242 60.500,150.167 60.350,150.167 60.167 C 150.167 59.983,150.092 59.833,150.000 59.833 C 149.908 59.833,149.833 59.683,149.833 59.500 C 149.833 59.317,149.758 59.167,149.667 59.167 C 149.575 59.167,149.500 59.033,149.500 58.870 C 149.500 58.707,149.350 58.465,149.167 58.333 C 148.983 58.201,148.833 57.996,148.833 57.877 C 148.833 57.574,146.059 54.833,145.752 54.833 C 145.614 54.833,145.500 54.758,145.500 54.667 C 145.500 54.575,145.367 54.500,145.203 54.500 C 145.040 54.500,144.799 54.350,144.667 54.167 C 144.526 53.971,144.235 53.833,143.963 53.833 C 143.708 53.833,143.500 53.758,143.500 53.667 C 143.500 53.575,143.350 53.500,143.167 53.500 C 142.983 53.500,142.833 53.425,142.833 53.333 C 142.833 53.242,142.533 53.167,142.167 53.167 C 141.800 53.167,141.500 53.092,141.500 53.000 C 141.500 52.907,141.056 52.833,140.500 52.833 C 139.944 52.833,139.500 52.759,139.500 52.667 C 139.500 52.563,138.611 52.500,137.167 52.500 C 135.722 52.500,134.833 52.563,134.833 52.667 M82.500 55.573 C 82.500 56.347,82.575 57.027,82.667 57.083 C 82.776 57.151,82.833 62.085,82.833 71.343 C 82.833 80.670,82.890 85.500,83.000 85.500 C 83.109 85.500,83.167 88.333,83.167 93.667 L 83.167 101.833 84.167 101.833 C 84.722 101.833,85.167 101.759,85.167 101.667 C 85.167 101.558,87.778 101.500,92.667 101.500 L 100.167 101.500 100.167 92.667 C 100.167 86.889,100.109 83.833,100.000 83.833 C 99.890 83.833,99.833 79.000,99.833 69.667 C 99.833 60.333,99.776 55.500,99.667 55.500 C 99.575 55.500,99.500 55.200,99.500 54.833 L 99.500 54.167 91.000 54.167 L 82.500 54.167 82.500 55.573 M183.167 63.667 C 183.167 63.758,183.317 63.833,183.500 63.833 C 183.683 63.833,183.833 63.908,183.833 64.000 C 183.833 64.092,183.983 64.167,184.167 64.167 C 184.350 64.167,184.500 64.242,184.500 64.333 C 184.500 64.425,184.614 64.500,184.754 64.500 C 185.064 64.500,186.500 65.905,186.500 66.209 C 186.500 66.328,186.650 66.535,186.833 66.667 C 187.017 66.799,187.167 67.040,187.167 67.203 C 187.167 67.367,187.242 67.500,187.333 67.500 C 187.425 67.500,187.500 67.725,187.500 68.000 C 187.500 68.275,187.575 68.500,187.667 68.500 C 187.758 68.500,187.833 68.725,187.833 69.000 C 187.833 69.275,187.908 69.500,188.000 69.500 C 188.092 69.500,188.167 69.800,188.167 70.167 C 188.167 70.533,188.242 70.833,188.333 70.833 C 188.425 70.833,188.500 71.133,188.500 71.500 L 188.500 72.167 185.333 72.167 C 183.333 72.167,182.167 72.228,182.167 72.333 C 182.167 72.440,180.556 72.500,177.667 72.500 C 173.278 72.500,173.167 72.492,173.167 72.167 C 173.167 71.983,173.242 71.833,173.333 71.833 C 173.425 71.833,173.500 71.458,173.500 71.000 C 173.500 70.542,173.575 70.167,173.667 70.167 C 173.758 70.167,173.833 69.867,173.833 69.500 C 173.833 69.133,173.908 68.833,174.000 68.833 C 174.092 68.833,174.167 68.683,174.167 68.500 C 174.167 68.317,174.242 68.167,174.333 68.167 C 174.425 68.167,174.500 68.017,174.500 67.833 C 174.500 67.650,174.575 67.500,174.667 67.500 C 174.758 67.500,174.833 67.367,174.833 67.203 C 174.833 67.040,174.983 66.799,175.167 66.667 C 175.350 66.535,175.500 66.328,175.500 66.208 C 175.500 65.923,176.590 64.833,176.874 64.833 C 176.995 64.833,177.201 64.683,177.333 64.500 C 177.465 64.317,177.707 64.167,177.870 64.167 C 178.033 64.167,178.167 64.092,178.167 64.000 C 178.167 63.908,178.392 63.833,178.667 63.833 C 178.942 63.833,179.167 63.758,179.167 63.667 C 179.167 63.565,179.944 63.500,181.167 63.500 C 182.389 63.500,183.167 63.565,183.167 63.667 " stroke="none" fill="#fcfcfc" fill-rule="evenodd"></path><path id="path1" d="M233.447 38.109 C 233.384 38.171,233.333 51.785,233.333 68.361 L 233.333 98.500 239.000 98.500 L 244.667 98.500 244.668 86.375 C 244.670 70.906,244.881 68.901,246.800 66.138 C 250.099 61.389,258.381 61.236,260.660 65.882 C 261.517 67.628,261.551 68.234,261.654 83.917 L 261.750 98.417 267.375 98.461 L 273.000 98.504 273.000 83.117 C 273.000 63.587,272.932 62.976,270.326 59.167 C 266.532 53.620,255.929 52.092,247.750 55.914 C 247.108 56.214,246.209 56.731,245.751 57.063 C 245.292 57.395,244.862 57.667,244.794 57.667 C 244.725 57.667,244.650 53.260,244.626 47.875 L 244.583 38.083 239.072 38.039 C 236.040 38.015,233.509 38.047,233.447 38.109 M327.375 38.109 C 327.155 38.199,327.049 97.667,327.268 98.236 C 327.357 98.469,327.984 98.500,332.601 98.500 L 337.833 98.500 337.833 97.010 C 337.833 95.184,337.885 95.148,339.197 96.061 C 345.489 100.437,355.056 100.703,360.999 96.667 C 368.107 91.841,371.226 82.151,369.478 70.333 C 368.060 60.747,361.958 54.886,352.286 53.818 C 348.135 53.360,342.239 54.793,338.876 57.079 C 338.535 57.310,338.188 57.500,338.105 57.500 C 337.950 57.500,337.978 56.222,338.357 46.000 C 338.475 42.837,338.574 39.762,338.577 39.167 L 338.583 38.083 333.083 38.054 C 330.058 38.037,327.490 38.062,327.375 38.109 M280.000 68.699 C 280.000 87.594,280.199 89.682,282.356 93.457 C 286.561 100.819,301.209 101.615,307.917 94.848 C 309.249 93.504,309.333 93.587,309.333 96.250 L 309.333 98.500 314.583 98.500 L 319.833 98.500 319.833 76.667 L 319.833 54.833 314.192 54.833 L 308.550 54.833 308.447 67.792 C 308.321 83.496,308.229 84.504,306.714 86.792 C 303.292 91.958,295.021 92.248,292.594 87.287 C 291.692 85.442,291.649 84.704,291.552 69.125 L 291.463 54.833 285.732 54.833 L 280.000 54.833 280.000 68.699 M350.352 62.666 C 356.444 63.796,359.623 71.926,357.814 81.750 C 355.980 91.713,344.704 93.790,340.243 84.986 C 338.458 81.464,338.056 73.887,339.415 69.379 C 340.865 64.567,345.444 61.756,350.352 62.666 " stroke="none" fill="#040404" fill-rule="evenodd"></path><path id="path2" d="M224.522 20.771 C 224.323 20.995,224.342 21.021,224.675 20.973 C 224.885 20.942,225.088 20.823,225.126 20.708 C 225.222 20.416,224.797 20.460,224.522 20.771 M262.458 20.625 C 282.648 20.648,315.685 20.648,335.875 20.625 C 356.065 20.602,339.546 20.583,299.167 20.583 C 258.787 20.583,242.269 20.602,262.458 20.625 M373.333 20.750 C 373.333 20.892,373.483 21.000,373.679 21.000 C 373.985 21.000,373.996 20.972,373.774 20.750 C 373.636 20.612,373.481 20.500,373.429 20.500 C 373.376 20.500,373.333 20.612,373.333 20.750 M223.667 21.000 C 223.667 21.092,223.479 21.167,223.250 21.167 C 223.021 21.167,222.833 21.242,222.833 21.333 C 222.833 21.425,222.725 21.500,222.593 21.500 C 222.348 21.500,222.076 21.798,222.204 21.926 C 222.315 22.037,224.000 21.154,224.000 20.985 C 224.000 20.902,223.925 20.833,223.833 20.833 C 223.742 20.833,223.667 20.908,223.667 21.000 M374.375 21.042 C 374.413 21.156,374.583 21.277,374.752 21.310 C 375.035 21.364,375.038 21.347,374.792 21.101 C 374.472 20.781,374.279 20.754,374.375 21.042 M375.346 21.375 C 375.339 21.535,375.444 21.667,375.579 21.667 C 375.714 21.667,376.285 22.117,376.847 22.667 C 377.409 23.217,377.947 23.667,378.043 23.667 C 378.139 23.667,378.056 23.527,377.859 23.355 C 377.661 23.184,377.500 22.954,377.500 22.844 C 377.500 22.574,377.078 22.167,376.799 22.167 C 376.675 22.167,376.465 22.017,376.333 21.833 C 376.201 21.650,375.966 21.500,375.810 21.500 C 375.655 21.500,375.490 21.406,375.444 21.292 C 375.393 21.167,375.354 21.201,375.346 21.375 M221.204 22.608 C 220.813 23.007,220.554 23.333,220.629 23.333 C 220.805 23.333,222.085 22.026,221.989 21.945 C 221.949 21.911,221.596 22.210,221.204 22.608 M220.167 23.833 C 220.167 24.017,220.092 24.167,220.000 24.167 C 219.908 24.167,219.833 24.317,219.833 24.500 C 219.833 24.683,219.758 24.833,219.667 24.833 C 219.575 24.833,219.500 24.955,219.500 25.104 C 219.500 25.426,219.997 25.097,220.004 24.771 C 220.006 24.668,220.154 24.396,220.333 24.167 C 220.727 23.663,220.748 23.500,220.417 23.500 C 220.278 23.500,220.167 23.648,220.167 23.833 M378.000 23.877 C 378.000 23.917,378.118 24.185,378.262 24.474 C 378.514 24.980,378.833 25.180,378.833 24.833 C 378.833 24.742,378.764 24.667,378.678 24.667 C 378.593 24.667,378.499 24.504,378.470 24.305 C 378.427 24.012,378.000 23.623,378.000 23.877 M378.705 25.531 C 378.788 25.780,379.167 25.917,379.167 25.698 C 379.167 25.609,379.048 25.490,378.903 25.434 C 378.740 25.372,378.664 25.409,378.705 25.531 M379.019 26.542 C 379.006 26.847,379.084 27.000,379.250 27.000 C 379.387 27.000,379.500 26.925,379.500 26.833 C 379.500 26.742,379.430 26.667,379.346 26.667 C 379.261 26.667,379.157 26.535,379.115 26.375 C 379.068 26.196,379.031 26.260,379.019 26.542 M219.186 26.708 C 219.175 26.869,219.092 27.000,219.000 27.000 C 218.908 27.000,218.833 27.113,218.833 27.250 C 218.833 27.387,218.911 27.500,219.005 27.500 C 219.235 27.500,219.380 27.091,219.283 26.718 C 219.212 26.442,219.204 26.441,219.186 26.708 M379.385 70.750 C 379.386 94.400,379.417 113.506,379.454 113.208 C 379.491 112.910,379.591 112.667,379.677 112.667 C 379.774 112.667,379.833 96.662,379.833 70.667 C 379.833 44.770,379.774 28.667,379.678 28.667 C 379.592 28.667,379.491 28.460,379.453 28.208 C 379.415 27.956,379.384 47.100,379.385 70.750 M218.915 70.667 C 218.915 93.904,218.935 103.410,218.958 91.792 C 218.982 80.173,218.982 61.160,218.958 49.542 C 218.935 37.923,218.915 47.429,218.915 70.667 M232.935 38.095 C 232.724 38.646,232.821 98.421,233.033 98.633 C 233.328 98.928,244.815 98.920,244.912 98.625 C 244.949 98.510,245.003 92.454,245.032 85.167 C 245.060 77.879,245.037 72.817,244.981 73.917 C 244.925 75.017,244.868 81.035,244.856 87.292 L 244.833 98.667 239.003 98.667 L 233.173 98.667 233.083 98.292 C 233.033 98.085,233.013 84.454,233.038 68.000 L 233.083 38.083 238.958 38.040 L 244.833 37.996 244.833 47.553 C 244.833 52.810,244.880 57.158,244.937 57.215 C 244.994 57.272,245.463 57.035,245.979 56.690 C 247.158 55.900,248.083 55.473,249.944 54.860 C 251.360 54.394,252.095 54.219,254.236 53.841 C 255.526 53.613,260.228 53.617,261.362 53.847 C 268.717 55.338,272.481 59.544,273.058 66.917 C 273.099 67.437,273.117 67.383,273.139 66.667 C 273.332 60.320,268.650 55.158,261.362 53.680 C 260.224 53.449,255.297 53.446,254.138 53.676 C 253.649 53.772,252.875 53.925,252.417 54.016 C 250.013 54.491,247.702 55.365,246.231 56.356 C 245.854 56.610,245.441 56.840,245.314 56.867 C 245.120 56.909,245.070 55.393,245.000 47.417 L 244.917 37.917 238.977 37.873 C 233.669 37.834,233.026 37.857,232.935 38.095 M326.911 38.040 C 326.867 38.155,326.850 51.862,326.874 68.500 L 326.917 98.750 332.500 98.750 L 338.083 98.750 338.167 97.290 L 338.250 95.831 339.083 96.427 C 342.756 99.053,349.984 100.607,354.218 99.680 C 354.602 99.596,355.367 99.434,355.917 99.319 C 362.455 97.954,368.178 91.289,369.644 83.333 C 370.070 81.019,370.165 80.093,370.138 78.481 L 370.110 76.750 369.997 78.833 C 369.380 90.157,363.662 97.728,354.407 99.476 C 352.225 99.888,347.697 99.665,345.167 99.021 C 343.052 98.483,339.312 96.694,338.660 95.909 C 338.165 95.312,338.000 95.626,338.000 97.169 L 338.000 98.671 332.542 98.627 L 327.083 98.583 327.041 68.290 L 326.999 37.996 332.867 38.040 L 338.735 38.083 338.859 38.500 C 338.974 38.888,338.980 38.882,338.949 38.417 L 338.917 37.917 332.954 37.873 C 328.273 37.839,326.974 37.874,326.911 38.040 M338.704 41.349 C 338.683 42.686,338.634 44.824,338.593 46.099 L 338.520 48.417 338.678 46.417 C 338.766 45.317,338.816 43.179,338.789 41.667 L 338.741 38.917 338.704 41.349 M338.286 52.788 C 338.231 55.146,338.214 57.103,338.247 57.136 C 338.280 57.169,338.820 56.899,339.445 56.536 C 341.640 55.261,343.797 54.490,346.971 53.847 C 348.129 53.612,353.102 53.614,354.123 53.850 C 357.876 54.718,359.563 55.383,361.833 56.892 C 366.784 60.183,369.962 66.825,370.010 73.985 C 370.015 74.773,370.078 75.717,370.150 76.083 C 370.231 76.496,370.257 75.957,370.219 74.667 C 369.882 63.446,364.783 56.256,355.583 54.029 C 355.217 53.940,354.559 53.785,354.123 53.684 C 353.102 53.448,348.129 53.445,346.971 53.680 C 343.891 54.304,340.607 55.497,339.141 56.524 C 338.374 57.060,338.372 57.050,338.462 52.667 C 338.510 50.375,338.511 48.500,338.467 48.500 C 338.422 48.500,338.341 50.430,338.286 52.788 M279.947 54.609 C 279.752 54.804,279.813 86.114,280.010 87.240 C 280.641 90.833,281.374 92.800,282.777 94.667 C 287.779 101.321,300.954 101.668,307.891 95.328 L 308.833 94.467 308.833 96.368 C 308.833 99.092,308.243 98.847,314.667 98.794 L 320.083 98.750 320.083 76.667 L 320.083 54.583 314.167 54.583 L 308.250 54.583 308.145 66.833 C 307.993 84.586,307.894 85.316,305.299 87.882 C 300.977 92.156,293.799 91.105,292.460 86.003 C 292.069 84.510,291.959 81.292,291.858 68.417 L 291.750 54.583 285.905 54.540 C 282.690 54.515,280.009 54.547,279.947 54.609 M291.672 67.292 C 291.679 86.968,291.891 88.202,295.558 89.964 C 297.344 90.822,301.306 90.916,302.103 90.119 C 302.169 90.054,302.318 90.000,302.436 90.000 C 302.873 90.000,304.649 88.815,305.527 87.937 C 308.056 85.408,308.324 83.284,308.330 65.708 L 308.333 54.667 314.167 54.667 L 320.000 54.667 320.000 76.667 L 320.000 98.667 314.583 98.667 L 309.167 98.667 309.167 96.593 C 309.167 94.113,309.109 94.048,307.893 95.159 C 301.621 100.892,289.656 101.259,284.083 95.891 C 282.918 94.768,282.335 93.890,281.163 91.490 C 280.998 91.152,280.412 88.559,280.180 87.147 C 280.060 86.412,280.000 80.824,280.000 70.356 L 280.000 54.667 285.833 54.667 L 291.667 54.667 291.672 67.292 M252.333 62.826 C 252.104 62.900,251.579 63.059,251.167 63.180 C 248.382 64.000,246.414 66.233,245.524 69.583 C 245.287 70.476,245.106 71.945,245.251 71.803 C 245.315 71.740,245.428 71.252,245.503 70.719 C 246.028 66.972,248.119 64.250,251.167 63.349 C 251.579 63.228,252.134 63.062,252.400 62.981 C 254.798 62.250,258.500 63.363,259.859 65.223 C 261.204 67.063,261.186 66.828,261.282 83.750 C 261.343 94.701,261.415 98.615,261.558 98.706 C 261.905 98.927,273.075 98.858,273.300 98.633 C 273.516 98.418,273.567 70.834,273.356 68.667 C 273.297 68.071,273.250 74.558,273.250 83.083 L 273.250 98.583 267.417 98.583 L 261.583 98.583 261.485 83.833 C 261.370 66.706,261.383 66.849,259.818 64.951 C 258.325 63.140,254.632 62.091,252.333 62.826 M346.151 62.918 C 340.554 64.453,337.896 70.366,338.920 79.000 C 339.486 83.767,340.512 86.066,343.029 88.208 C 344.324 89.310,346.769 90.453,347.108 90.115 C 347.153 90.069,346.941 89.977,346.637 89.911 C 343.547 89.237,340.646 86.175,339.695 82.583 C 337.903 75.818,338.956 68.662,342.222 65.413 C 347.101 60.559,353.988 62.388,356.978 69.333 C 357.154 69.740,357.155 69.739,357.056 69.272 C 356.118 64.873,350.647 61.685,346.151 62.918 M357.266 70.417 C 357.320 70.783,357.440 71.458,357.532 71.917 C 357.799 73.248,357.894 79.243,357.670 80.583 C 356.625 86.824,353.900 89.806,348.917 90.159 L 347.250 90.277 348.647 90.305 C 352.728 90.387,356.254 87.430,357.358 83.000 C 358.247 79.432,358.233 72.996,357.331 70.250 C 357.182 69.798,357.176 69.814,357.266 70.417 M218.833 114.069 C 218.833 114.215,218.903 114.333,218.988 114.333 C 219.073 114.333,219.180 114.465,219.226 114.625 C 219.272 114.785,219.296 114.697,219.280 114.430 C 219.249 113.930,218.833 113.594,218.833 114.069 M379.064 114.574 C 379.013 114.706,379.007 114.949,379.050 115.115 C 379.110 115.348,379.132 115.329,379.147 115.032 C 379.158 114.820,379.242 114.693,379.333 114.750 C 379.425 114.807,379.500 114.736,379.500 114.593 C 379.500 114.266,379.187 114.252,379.064 114.574 M219.291 115.542 C 219.381 115.656,219.497 115.862,219.548 116.000 C 219.601 116.142,219.646 116.053,219.654 115.792 C 219.663 115.475,219.583 115.333,219.396 115.333 C 219.203 115.333,219.173 115.393,219.291 115.542 M378.667 115.912 C 378.667 116.046,378.522 116.414,378.345 116.729 C 378.168 117.044,378.052 117.330,378.086 117.364 C 378.121 117.399,377.663 117.905,377.069 118.489 C 376.475 119.073,376.023 119.633,376.065 119.733 C 376.113 119.850,376.145 119.841,376.154 119.708 C 376.161 119.594,376.282 119.500,376.422 119.500 C 376.734 119.500,377.833 118.429,377.833 118.126 C 377.833 118.005,377.983 117.799,378.167 117.667 C 378.350 117.535,378.500 117.293,378.500 117.130 C 378.500 116.967,378.575 116.833,378.667 116.833 C 378.758 116.833,378.833 116.615,378.833 116.347 C 378.833 116.080,378.927 115.823,379.042 115.777 C 379.166 115.727,379.133 115.688,378.958 115.680 C 378.798 115.673,378.667 115.777,378.667 115.912 M219.958 117.110 C 220.073 117.157,220.167 117.302,220.167 117.434 C 220.167 117.745,222.255 119.833,222.566 119.833 C 222.698 119.833,222.843 119.927,222.890 120.042 C 222.940 120.166,222.979 120.133,222.987 119.958 C 222.994 119.797,222.881 119.667,222.735 119.667 C 222.389 119.667,220.333 117.611,220.333 117.265 C 220.333 117.119,220.203 117.006,220.042 117.013 C 219.867 117.021,219.834 117.060,219.958 117.110 M375.444 119.778 C 375.265 119.957,375.316 120.111,375.556 120.111 C 375.678 120.111,375.778 120.011,375.778 119.889 C 375.778 119.650,375.624 119.598,375.444 119.778 M223.434 120.236 C 223.490 120.381,223.609 120.500,223.698 120.500 C 223.917 120.500,223.780 120.121,223.531 120.038 C 223.409 119.998,223.372 120.074,223.434 120.236 M373.667 120.583 C 373.667 120.721,373.710 120.833,373.762 120.833 C 373.814 120.833,373.970 120.721,374.107 120.583 C 374.329 120.361,374.319 120.333,374.012 120.333 C 373.816 120.333,373.667 120.442,373.667 120.583 M228.145 120.743 C 228.103 120.786,227.566 120.834,226.951 120.851 C 226.336 120.868,225.833 120.945,225.833 121.023 C 225.833 121.100,258.796 121.165,299.083 121.166 C 344.403 121.167,372.333 121.109,372.333 121.012 C 372.333 120.927,372.502 120.824,372.708 120.784 C 372.915 120.745,340.490 120.702,300.653 120.689 C 260.816 120.677,228.188 120.701,228.145 120.743 " stroke="none" fill="#c47818" fill-rule="evenodd"></path><path id="path3" d="M225.083 20.812 C 225.022 20.969,224.838 21.009,224.497 20.941 C 224.224 20.886,224.000 20.913,224.000 21.000 C 224.000 21.151,222.573 21.905,222.272 21.913 C 222.055 21.919,220.568 23.397,220.632 23.543 C 220.663 23.612,220.533 23.886,220.344 24.152 C 220.155 24.417,220.000 24.708,220.000 24.797 C 220.000 24.886,219.895 25.046,219.767 25.152 C 219.639 25.259,219.573 25.493,219.620 25.673 C 219.680 25.901,219.622 26.000,219.429 26.000 C 219.200 26.000,219.172 26.107,219.266 26.610 C 219.347 27.044,219.313 27.273,219.149 27.402 C 218.800 27.675,218.800 113.659,219.149 113.932 C 219.313 114.061,219.347 114.290,219.266 114.723 C 219.172 115.226,219.200 115.333,219.428 115.333 C 219.640 115.333,219.687 115.449,219.631 115.833 C 219.580 116.185,219.627 116.333,219.790 116.333 C 219.947 116.333,219.988 116.442,219.917 116.667 C 219.842 116.903,219.887 117.000,220.072 117.000 C 220.216 117.000,220.333 117.119,220.333 117.265 C 220.333 117.611,222.389 119.667,222.735 119.667 C 222.881 119.667,223.000 119.784,223.000 119.928 C 223.000 120.113,223.097 120.158,223.334 120.083 C 223.556 120.013,223.702 120.065,223.769 120.239 C 223.828 120.394,224.068 120.500,224.361 120.500 C 224.632 120.500,224.818 120.556,224.776 120.625 C 224.733 120.694,258.216 120.750,299.183 120.750 C 362.270 120.750,373.667 120.715,373.667 120.521 C 373.667 120.355,373.805 120.319,374.167 120.392 C 374.549 120.468,374.667 120.431,374.667 120.235 C 374.667 120.059,374.766 120.009,374.980 120.077 C 375.183 120.142,375.331 120.081,375.398 119.904 C 375.458 119.748,375.608 119.673,375.751 119.727 C 375.888 119.780,376.000 119.759,376.000 119.681 C 376.000 119.603,376.484 119.064,377.075 118.483 C 377.666 117.902,378.121 117.399,378.086 117.364 C 378.052 117.330,378.168 117.044,378.345 116.729 C 378.522 116.414,378.667 116.046,378.667 115.912 C 378.667 115.777,378.777 115.667,378.912 115.667 C 379.099 115.667,379.133 115.541,379.053 115.142 C 378.982 114.785,379.024 114.558,379.182 114.433 C 379.531 114.160,379.535 27.000,379.187 27.000 C 379.018 27.000,378.981 26.848,379.049 26.430 C 379.116 26.015,379.074 25.833,378.893 25.764 C 378.730 25.702,378.681 25.552,378.750 25.334 C 378.808 25.150,378.781 25.000,378.690 25.000 C 378.476 25.000,377.977 24.005,378.096 23.813 C 378.146 23.733,378.115 23.667,378.028 23.667 C 377.940 23.667,377.409 23.217,376.847 22.667 C 376.285 22.117,375.714 21.667,375.579 21.667 C 375.444 21.667,375.333 21.553,375.333 21.413 C 375.333 21.227,375.224 21.188,374.918 21.265 C 374.626 21.338,374.474 21.292,374.403 21.108 C 374.331 20.920,374.168 20.875,373.818 20.945 C 373.471 21.014,373.333 20.977,373.333 20.813 C 373.333 20.469,225.214 20.469,225.083 20.812 M245.000 47.417 C 245.070 55.393,245.120 56.909,245.314 56.867 C 245.441 56.840,245.854 56.610,246.231 56.356 C 247.702 55.365,250.013 54.491,252.417 54.016 C 252.875 53.925,253.649 53.772,254.138 53.676 C 255.297 53.446,260.224 53.449,261.362 53.680 C 269.311 55.292,272.624 59.325,273.331 68.250 C 273.587 71.481,273.559 98.374,273.300 98.633 C 273.075 98.858,261.905 98.927,261.558 98.706 C 261.415 98.615,261.343 94.701,261.282 83.750 C 261.186 66.828,261.204 67.063,259.859 65.223 C 258.500 63.363,254.798 62.250,252.400 62.981 C 252.134 63.062,251.579 63.228,251.167 63.349 C 248.129 64.247,246.030 66.971,245.506 70.692 C 245.433 71.210,245.311 71.735,245.234 71.858 C 245.157 71.982,245.055 78.083,245.006 85.417 L 244.917 98.750 239.103 98.794 C 234.951 98.825,233.224 98.784,233.061 98.648 C 232.824 98.451,232.699 38.710,232.935 38.095 C 233.026 37.857,233.669 37.834,238.977 37.873 L 244.917 37.917 245.000 47.417 M338.878 37.958 C 338.941 38.080,338.856 41.349,338.520 51.749 C 338.347 57.133,338.338 57.017,338.883 56.670 C 340.845 55.418,343.817 54.319,346.971 53.680 C 348.129 53.445,353.102 53.448,354.123 53.684 C 356.749 54.291,358.067 54.706,359.500 55.378 C 362.175 56.631,364.855 58.910,366.495 61.326 C 367.877 63.361,369.177 66.637,369.640 69.250 C 369.738 69.800,369.901 70.727,370.004 71.310 C 370.246 72.685,370.245 79.688,370.003 81.226 C 369.400 85.049,368.897 86.803,367.652 89.417 C 365.378 94.190,360.412 98.380,355.917 99.319 C 355.367 99.434,354.602 99.596,354.218 99.680 C 349.984 100.607,342.756 99.053,339.083 96.427 L 338.250 95.831 338.167 97.290 L 338.083 98.750 332.500 98.750 L 326.917 98.750 326.874 68.500 C 326.850 51.862,326.867 38.156,326.910 38.042 C 326.999 37.808,338.758 37.726,338.878 37.958 M291.858 68.417 C 291.959 81.292,292.069 84.510,292.460 86.003 C 293.799 91.105,300.977 92.156,305.299 87.882 C 307.894 85.316,307.993 84.586,308.145 66.833 L 308.250 54.583 314.167 54.583 L 320.083 54.583 320.083 76.667 L 320.083 98.750 314.667 98.794 C 308.243 98.847,308.833 99.092,308.833 96.368 L 308.833 94.467 307.891 95.328 C 300.954 101.668,287.779 101.321,282.777 94.667 C 281.374 92.800,280.641 90.833,280.010 87.240 C 279.813 86.114,279.752 54.804,279.947 54.609 C 280.009 54.547,282.690 54.515,285.905 54.540 L 291.750 54.583 291.858 68.417 M346.098 63.098 C 340.702 64.568,338.091 70.485,339.082 79.000 C 339.216 80.146,339.368 81.271,339.422 81.500 C 341.844 91.948,353.455 93.438,356.961 83.750 C 357.132 83.277,357.245 82.785,357.658 80.696 C 357.886 79.540,357.885 73.783,357.656 72.638 C 357.558 72.149,357.400 71.337,357.305 70.833 C 356.225 65.134,351.244 61.696,346.098 63.098 " stroke="none" fill="#f4941c" fill-rule="evenodd"></path><path id="path4" d="M225.776 20.375 C 225.818 20.444,258.936 20.500,299.371 20.500 C 339.806 20.500,372.851 20.462,372.805 20.416 C 372.668 20.279,225.691 20.238,225.776 20.375 M221.080 22.503 C 220.724 22.868,220.488 23.167,220.555 23.167 C 220.725 23.167,221.883 21.994,221.798 21.909 C 221.759 21.871,221.437 22.138,221.080 22.503 M379.500 27.917 C 379.500 28.054,379.575 28.167,379.667 28.167 C 379.758 28.167,379.833 28.054,379.833 27.917 C 379.833 27.779,379.758 27.667,379.667 27.667 C 379.575 27.667,379.500 27.779,379.500 27.917 M218.503 70.625 C 218.504 97.641,218.563 113.007,218.667 113.167 C 218.771 113.328,218.829 98.402,218.831 70.875 C 218.832 42.623,218.777 28.333,218.667 28.333 C 218.556 28.333,218.501 42.540,218.503 70.625 M233.244 38.208 C 233.200 38.323,233.184 51.954,233.207 68.500 L 233.250 98.583 239.000 98.587 L 244.750 98.590 239.041 98.543 L 233.332 98.496 233.374 68.248 C 233.398 51.612,233.396 38.000,233.370 38.000 C 233.344 38.000,233.287 38.094,233.244 38.208 M244.628 47.849 C 244.652 53.249,244.723 57.667,244.785 57.667 C 244.923 57.667,246.167 56.815,246.167 56.721 C 246.167 56.610,245.525 56.991,245.416 57.168 C 244.869 58.054,244.833 57.485,244.833 47.760 C 244.833 42.494,244.777 38.152,244.708 38.109 C 244.640 38.067,244.603 42.450,244.628 47.849 M338.561 41.750 C 338.561 42.667,338.589 43.020,338.623 42.536 C 338.657 42.052,338.656 41.302,338.622 40.869 C 338.588 40.437,338.560 40.833,338.561 41.750 M338.392 44.917 C 338.392 45.742,338.420 46.100,338.455 45.713 C 338.490 45.327,338.490 44.652,338.456 44.213 C 338.422 43.775,338.393 44.092,338.392 44.917 M338.227 51.167 C 338.227 52.038,338.255 52.394,338.289 51.958 C 338.324 51.523,338.324 50.810,338.289 50.375 C 338.255 49.940,338.227 50.296,338.227 51.167 M338.060 54.333 C 338.060 55.204,338.088 55.560,338.123 55.125 C 338.157 54.690,338.157 53.977,338.123 53.542 C 338.088 53.106,338.060 53.462,338.060 54.333 M255.667 53.759 C 255.804 53.789,257.079 53.841,258.500 53.875 C 259.936 53.909,260.787 53.881,260.417 53.811 C 259.792 53.694,255.125 53.642,255.667 53.759 M347.667 53.836 C 347.408 53.921,347.629 53.938,348.250 53.880 C 348.800 53.829,349.281 53.760,349.319 53.727 C 349.454 53.610,348.078 53.702,347.667 53.836 M351.958 53.784 C 352.165 53.824,352.502 53.824,352.708 53.784 C 352.915 53.745,352.746 53.712,352.333 53.712 C 351.921 53.712,351.752 53.745,351.958 53.784 M252.750 54.174 C 252.518 54.280,252.619 54.295,253.083 54.224 C 253.450 54.168,253.781 54.095,253.819 54.061 C 253.963 53.935,253.070 54.029,252.750 54.174 M261.681 54.060 C 261.719 54.093,261.975 54.170,262.250 54.232 C 262.615 54.313,262.683 54.298,262.500 54.174 C 262.275 54.022,261.513 53.916,261.681 54.060 M345.750 54.167 C 345.325 54.349,345.763 54.349,346.333 54.167 C 346.668 54.059,346.685 54.032,346.417 54.028 C 346.233 54.026,345.933 54.088,345.750 54.167 M354.667 54.167 C 355.237 54.349,355.675 54.349,355.250 54.167 C 355.067 54.088,354.767 54.026,354.583 54.028 C 354.315 54.032,354.332 54.059,354.667 54.167 M251.250 54.500 C 251.040 54.590,251.009 54.643,251.167 54.643 C 251.304 54.643,251.567 54.579,251.750 54.500 C 251.960 54.410,251.991 54.357,251.833 54.357 C 251.696 54.357,251.433 54.421,251.250 54.500 M344.417 54.500 C 344.207 54.590,344.176 54.643,344.333 54.643 C 344.471 54.643,344.733 54.579,344.917 54.500 C 345.127 54.410,345.158 54.357,345.000 54.357 C 344.863 54.357,344.600 54.421,344.417 54.500 M285.707 54.790 L 291.498 54.838 291.542 67.127 L 291.587 79.417 291.585 67.083 L 291.583 54.750 285.750 54.747 L 279.917 54.743 285.707 54.790 M308.374 64.792 L 308.414 74.917 308.458 64.875 L 308.503 54.833 314.168 54.833 L 319.833 54.833 319.833 76.667 L 319.833 98.500 314.583 98.500 L 309.333 98.500 309.333 96.250 C 309.333 93.876,309.140 93.429,308.487 94.292 C 308.299 94.540,308.301 94.552,308.500 94.375 C 309.070 93.866,309.156 94.109,309.203 96.375 L 309.250 98.583 314.583 98.583 L 319.917 98.583 319.959 76.625 L 320.001 54.667 314.167 54.667 L 308.333 54.667 308.374 64.792 M360.833 56.380 C 360.879 56.430,361.329 56.743,361.833 57.077 C 362.421 57.467,362.570 57.529,362.250 57.250 C 361.821 56.878,360.596 56.126,360.833 56.380 M269.160 57.708 C 269.850 58.444,270.000 58.577,270.000 58.451 C 270.000 58.425,269.644 58.068,269.208 57.660 L 268.417 56.917 269.160 57.708 M362.833 57.713 C 362.833 57.738,363.415 58.319,364.125 59.004 L 365.417 60.250 364.171 58.958 C 363.014 57.759,362.833 57.591,362.833 57.713 M366.917 62.667 C 367.059 62.942,367.213 63.167,367.259 63.167 C 367.304 63.167,367.226 62.942,367.083 62.667 C 366.941 62.392,366.787 62.167,366.741 62.167 C 366.696 62.167,366.774 62.392,366.917 62.667 M253.625 62.622 C 254.015 62.657,254.652 62.657,255.042 62.622 C 255.431 62.587,255.112 62.558,254.333 62.558 C 253.554 62.558,253.235 62.587,253.625 62.622 M347.713 62.623 C 348.152 62.657,348.827 62.657,349.213 62.622 C 349.600 62.587,349.242 62.559,348.417 62.559 C 347.592 62.560,347.275 62.588,347.713 62.623 M251.583 62.833 C 251.373 62.924,251.342 62.977,251.500 62.977 C 251.637 62.977,251.900 62.912,252.083 62.833 C 252.293 62.743,252.324 62.690,252.167 62.690 C 252.029 62.690,251.767 62.755,251.583 62.833 M345.750 62.833 C 345.540 62.924,345.509 62.977,345.667 62.977 C 345.804 62.977,346.067 62.912,346.250 62.833 C 346.460 62.743,346.491 62.690,346.333 62.690 C 346.196 62.690,345.933 62.755,345.750 62.833 M350.583 62.833 C 350.767 62.912,351.029 62.977,351.167 62.977 C 351.324 62.977,351.293 62.924,351.083 62.833 C 350.900 62.755,350.637 62.690,350.500 62.690 C 350.342 62.690,350.373 62.743,350.583 62.833 M249.625 63.595 C 249.002 63.933,249.040 64.074,249.667 63.750 C 249.942 63.608,250.167 63.456,250.167 63.412 C 250.167 63.305,250.149 63.311,249.625 63.595 M259.591 64.504 C 259.862 64.827,260.218 65.277,260.382 65.504 C 260.670 65.901,260.670 65.896,260.384 65.368 C 260.220 65.065,259.864 64.615,259.592 64.368 L 259.098 63.917 259.591 64.504 M247.667 65.083 C 247.262 65.496,246.968 65.833,247.014 65.833 C 247.060 65.833,247.428 65.496,247.833 65.083 C 248.238 64.671,248.532 64.333,248.486 64.333 C 248.440 64.333,248.072 64.671,247.667 65.083 M341.988 65.125 C 341.234 65.921,340.371 66.967,340.853 66.500 C 341.400 65.970,342.878 64.333,342.810 64.333 C 342.770 64.333,342.400 64.690,341.988 65.125 M354.016 64.542 C 354.055 64.565,354.386 64.846,354.752 65.167 L 355.417 65.750 354.842 65.125 C 354.526 64.781,354.195 64.500,354.106 64.500 C 354.017 64.500,353.977 64.519,354.016 64.542 M355.739 66.417 C 356.319 67.272,356.438 67.373,356.116 66.738 C 355.972 66.456,355.729 66.121,355.574 65.992 C 355.419 65.864,355.494 66.055,355.739 66.417 M272.875 66.583 C 272.877 66.950,272.911 67.080,272.951 66.873 C 272.991 66.666,272.990 66.366,272.948 66.206 C 272.906 66.047,272.874 66.217,272.875 66.583 M246.242 67.015 C 246.095 67.299,246.005 67.561,246.041 67.597 C 246.077 67.633,246.232 67.401,246.384 67.081 C 246.727 66.362,246.608 66.308,246.242 67.015 M368.690 66.833 C 368.690 66.971,368.755 67.233,368.833 67.417 C 368.924 67.627,368.977 67.658,368.977 67.500 C 368.977 67.362,368.912 67.100,368.833 66.917 C 368.743 66.707,368.690 66.676,368.690 66.833 M340.250 67.333 C 340.108 67.608,340.029 67.833,340.075 67.833 C 340.121 67.833,340.274 67.608,340.417 67.333 C 340.559 67.058,340.638 66.833,340.592 66.833 C 340.546 66.833,340.392 67.058,340.250 67.333 M245.429 69.095 C 245.367 69.339,245.349 69.571,245.389 69.611 C 245.428 69.650,245.510 69.482,245.571 69.238 C 245.633 68.994,245.651 68.762,245.611 68.723 C 245.572 68.683,245.490 68.851,245.429 69.095 M273.041 83.629 L 273.000 98.509 267.333 98.463 C 264.217 98.437,261.667 98.473,261.667 98.542 C 261.667 98.775,273.001 98.692,273.090 98.458 C 273.134 98.344,273.150 91.612,273.125 83.500 L 273.081 68.750 273.041 83.629 M261.463 71.250 C 261.509 72.533,261.573 73.615,261.607 73.653 C 261.715 73.778,261.637 70.771,261.507 69.833 C 261.431 69.287,261.413 69.860,261.463 71.250 M357.357 70.000 C 357.357 70.137,357.421 70.400,357.500 70.583 C 357.590 70.793,357.643 70.824,357.643 70.667 C 357.643 70.529,357.579 70.267,357.500 70.083 C 357.410 69.873,357.357 69.842,357.357 70.000 M339.095 70.429 C 339.034 70.673,339.016 70.905,339.055 70.944 C 339.094 70.983,339.177 70.816,339.238 70.571 C 339.299 70.327,339.317 70.095,339.278 70.056 C 339.239 70.017,339.157 70.184,339.095 70.429 M245.093 70.759 C 245.030 71.094,245.012 71.401,245.053 71.441 C 245.093 71.482,245.178 71.242,245.241 70.907 C 245.303 70.573,245.321 70.266,245.281 70.225 C 245.240 70.184,245.155 70.425,245.093 70.759 M357.703 71.417 C 357.705 71.600,357.763 71.975,357.833 72.250 C 357.948 72.699,357.961 72.708,357.964 72.333 C 357.965 72.104,357.907 71.729,357.833 71.500 C 357.729 71.174,357.701 71.155,357.703 71.417 M369.785 72.833 C 369.835 73.612,369.904 74.281,369.938 74.319 C 370.051 74.446,369.978 72.930,369.834 72.167 C 369.732 71.622,369.718 71.804,369.785 72.833 M244.774 73.354 C 244.715 73.920,244.683 79.790,244.704 86.399 L 244.740 98.417 244.829 85.417 C 244.877 78.267,244.909 72.396,244.899 72.371 C 244.889 72.346,244.833 72.789,244.774 73.354 M338.705 72.833 C 338.705 73.154,338.740 73.285,338.782 73.125 C 338.823 72.965,338.823 72.702,338.782 72.542 C 338.740 72.381,338.705 72.512,338.705 72.833 M358.052 74.583 C 358.053 75.133,358.084 75.338,358.121 75.039 C 358.158 74.739,358.157 74.289,358.119 74.039 C 358.081 73.788,358.051 74.033,358.052 74.583 M358.221 76.750 C 358.222 77.392,358.252 77.634,358.288 77.288 C 358.324 76.942,358.324 76.417,358.287 76.121 C 358.250 75.825,358.221 76.108,358.221 76.750 M358.050 78.833 C 358.050 79.337,358.081 79.544,358.119 79.292 C 358.158 79.040,358.158 78.627,358.119 78.375 C 358.081 78.123,358.050 78.329,358.050 78.833 M369.772 79.480 C 369.708 80.249,369.688 80.911,369.729 80.951 C 369.833 81.055,370.052 78.574,369.963 78.305 C 369.922 78.183,369.836 78.712,369.772 79.480 M338.706 79.083 C 338.706 79.358,338.763 79.808,338.833 80.083 C 339.010 80.776,339.018 80.094,338.843 79.250 C 338.727 78.689,338.705 78.663,338.706 79.083 M308.112 80.731 C 308.045 81.637,308.023 82.412,308.062 82.451 C 308.165 82.554,308.382 79.786,308.301 79.402 C 308.264 79.227,308.179 79.825,308.112 80.731 M357.759 81.259 C 357.697 81.594,357.679 81.901,357.719 81.941 C 357.760 81.982,357.845 81.742,357.907 81.407 C 357.970 81.073,357.988 80.766,357.947 80.725 C 357.907 80.684,357.822 80.925,357.759 81.259 M339.023 81.333 C 339.023 81.471,339.088 81.733,339.167 81.917 C 339.257 82.127,339.310 82.158,339.310 82.000 C 339.310 81.862,339.245 81.600,339.167 81.417 C 339.076 81.207,339.023 81.176,339.023 81.333 M369.426 82.426 C 369.363 82.760,369.345 83.067,369.386 83.108 C 369.427 83.149,369.511 82.909,369.574 82.574 C 369.637 82.240,369.655 81.933,369.614 81.892 C 369.573 81.851,369.489 82.091,369.426 82.426 M291.712 83.000 C 291.712 83.412,291.745 83.581,291.784 83.375 C 291.824 83.169,291.824 82.831,291.784 82.625 C 291.745 82.419,291.712 82.587,291.712 83.000 M307.759 83.759 C 307.697 84.094,307.679 84.401,307.719 84.441 C 307.760 84.482,307.845 84.242,307.907 83.907 C 307.970 83.573,307.988 83.266,307.947 83.225 C 307.907 83.184,307.822 83.425,307.759 83.759 M280.055 84.583 C 280.055 85.225,280.086 85.467,280.122 85.121 C 280.158 84.775,280.157 84.250,280.120 83.955 C 280.083 83.659,280.054 83.942,280.055 84.583 M291.875 84.417 C 291.877 84.783,291.911 84.914,291.951 84.706 C 291.991 84.499,291.990 84.199,291.948 84.040 C 291.906 83.880,291.874 84.050,291.875 84.417 M340.568 85.637 C 340.702 85.896,340.942 86.215,341.101 86.345 C 341.264 86.480,341.187 86.276,340.923 85.875 C 340.388 85.064,340.210 84.945,340.568 85.637 M280.205 86.333 C 280.205 86.654,280.240 86.785,280.282 86.625 C 280.323 86.465,280.323 86.202,280.282 86.042 C 280.240 85.881,280.205 86.013,280.205 86.333 M354.640 87.920 C 354.121 88.422,353.748 88.833,353.812 88.833 C 353.876 88.833,354.335 88.421,354.833 87.917 C 356.004 86.732,355.865 86.734,354.640 87.920 M305.575 88.042 L 304.917 88.750 305.625 88.091 C 306.284 87.478,306.410 87.333,306.284 87.333 C 306.257 87.333,305.938 87.652,305.575 88.042 M342.060 87.629 C 342.229 87.903,343.996 89.241,344.500 89.478 C 344.850 89.642,344.867 89.640,344.604 89.462 C 344.432 89.345,343.762 88.841,343.115 88.342 C 342.468 87.842,341.994 87.521,342.060 87.629 M280.367 87.917 C 280.367 88.100,280.427 88.438,280.500 88.667 C 280.606 88.997,280.633 89.014,280.633 88.750 C 280.633 88.567,280.573 88.229,280.500 88.000 C 280.394 87.670,280.367 87.653,280.367 87.917 M280.669 89.597 C 280.671 89.773,280.748 90.029,280.841 90.167 C 280.964 90.349,280.980 90.282,280.898 89.917 C 280.761 89.304,280.666 89.171,280.669 89.597 M303.458 89.595 C 302.835 89.933,302.873 90.074,303.500 89.750 C 303.775 89.608,304.000 89.456,304.000 89.412 C 304.000 89.305,303.982 89.311,303.458 89.595 M348.125 90.455 C 348.515 90.490,349.152 90.490,349.542 90.455 C 349.931 90.420,349.613 90.392,348.833 90.392 C 348.054 90.392,347.735 90.420,348.125 90.455 M298.213 90.789 C 298.652 90.824,299.327 90.823,299.713 90.788 C 300.100 90.754,299.742 90.725,298.917 90.726 C 298.092 90.726,297.775 90.755,298.213 90.789 M365.406 92.445 C 365.150 92.782,365.025 93.004,365.129 92.940 C 365.342 92.808,366.064 91.833,365.948 91.833 C 365.907 91.833,365.663 92.109,365.406 92.445 M282.006 93.083 C 282.007 93.175,282.161 93.438,282.348 93.667 C 282.575 93.943,282.631 93.971,282.517 93.750 C 282.236 93.206,282.005 92.905,282.006 93.083 M363.667 94.417 C 362.984 95.104,362.463 95.667,362.508 95.667 C 362.554 95.667,363.150 95.104,363.833 94.417 C 364.516 93.729,365.037 93.167,364.992 93.167 C 364.946 93.167,364.350 93.729,363.667 94.417 M307.573 95.208 L 307.083 95.750 307.625 95.260 C 308.130 94.804,308.243 94.667,308.115 94.667 C 308.086 94.667,307.842 94.910,307.573 95.208 M283.750 95.485 C 284.224 96.002,285.167 96.761,285.167 96.626 C 285.167 96.592,284.735 96.198,284.208 95.752 C 283.593 95.231,283.429 95.135,283.750 95.485 M337.944 95.444 C 337.883 95.506,337.833 96.218,337.833 97.028 L 337.833 98.500 332.597 98.500 C 328.564 98.500,327.342 98.452,327.277 98.292 C 327.227 98.168,327.188 98.203,327.180 98.377 C 327.167 98.653,327.497 98.669,332.542 98.627 L 337.917 98.583 337.965 97.042 C 337.991 96.194,338.044 95.500,338.082 95.500 C 338.120 95.500,338.633 95.837,339.224 96.250 C 339.814 96.662,340.356 97.000,340.428 97.000 C 340.500 97.000,340.015 96.625,339.350 96.167 C 338.014 95.246,338.099 95.290,337.944 95.444 M305.083 97.000 C 304.808 97.182,304.658 97.330,304.750 97.329 C 304.917 97.326,305.823 96.676,305.667 96.671 C 305.621 96.670,305.358 96.818,305.083 97.000 M340.667 97.082 C 340.667 97.196,341.687 97.702,341.763 97.625 C 341.800 97.589,341.568 97.435,341.248 97.283 C 340.928 97.130,340.667 97.040,340.667 97.082 M344.750 98.833 C 344.933 98.912,345.196 98.977,345.333 98.977 C 345.491 98.977,345.460 98.924,345.250 98.833 C 345.067 98.755,344.804 98.690,344.667 98.690 C 344.509 98.690,344.540 98.743,344.750 98.833 M290.583 99.167 C 290.767 99.245,291.067 99.308,291.250 99.305 C 291.518 99.301,291.502 99.274,291.167 99.167 C 290.597 98.984,290.159 98.984,290.583 99.167 M299.000 99.167 C 298.665 99.274,298.649 99.301,298.917 99.305 C 299.100 99.308,299.400 99.245,299.583 99.167 C 300.008 98.984,299.570 98.984,299.000 99.167 M346.083 99.167 C 346.267 99.245,346.567 99.308,346.750 99.305 C 347.018 99.301,347.002 99.274,346.667 99.167 C 346.097 98.984,345.659 98.984,346.083 99.167 M292.208 99.448 C 292.369 99.490,292.631 99.490,292.792 99.448 C 292.952 99.406,292.821 99.372,292.500 99.372 C 292.179 99.372,292.048 99.406,292.208 99.448 M296.625 99.451 C 296.831 99.491,297.169 99.491,297.375 99.451 C 297.581 99.411,297.412 99.379,297.000 99.379 C 296.587 99.379,296.419 99.411,296.625 99.451 M348.333 99.529 C 349.317 99.677,352.574 99.679,353.398 99.532 C 353.754 99.469,352.592 99.417,350.815 99.417 C 349.037 99.417,347.921 99.467,348.333 99.529 M293.875 99.623 C 294.310 99.657,295.023 99.657,295.458 99.623 C 295.894 99.588,295.537 99.560,294.667 99.560 C 293.796 99.560,293.440 99.588,293.875 99.623 M379.505 113.592 C 379.510 114.023,379.532 114.045,379.689 113.776 C 379.817 113.555,379.816 113.416,379.684 113.284 C 379.550 113.150,379.501 113.233,379.505 113.592 M372.667 121.000 C 372.667 121.092,372.775 121.167,372.907 121.167 C 373.039 121.167,373.193 121.092,373.250 121.000 C 373.307 120.908,373.199 120.833,373.010 120.833 C 372.821 120.833,372.667 120.908,372.667 121.000 " stroke="none" fill="#744c0c" fill-rule="evenodd"></path><path id="path5" d="M262.889 20.292 C 282.948 20.315,315.723 20.315,335.722 20.292 C 355.721 20.268,339.308 20.249,299.250 20.249 C 259.192 20.249,242.829 20.268,262.889 20.292 M379.500 28.417 C 379.500 28.554,379.575 28.667,379.667 28.667 C 379.758 28.667,379.833 28.554,379.833 28.417 C 379.833 28.279,379.758 28.167,379.667 28.167 C 379.575 28.167,379.500 28.279,379.500 28.417 M233.077 38.208 C 233.033 38.323,233.017 51.917,233.041 68.417 L 233.083 98.417 233.167 68.208 C 233.213 51.594,233.229 38.000,233.203 38.000 C 233.177 38.000,233.121 38.094,233.077 38.208 M327.082 68.250 C 327.082 84.933,327.101 91.734,327.125 83.362 C 327.149 74.990,327.149 61.340,327.125 53.028 C 327.101 44.717,327.082 51.567,327.082 68.250 M338.553 44.333 C 338.553 44.929,338.584 45.173,338.621 44.875 C 338.658 44.577,338.658 44.090,338.621 43.792 C 338.584 43.494,338.553 43.737,338.553 44.333 M338.388 47.417 C 338.389 48.058,338.419 48.300,338.455 47.955 C 338.491 47.609,338.490 47.084,338.454 46.788 C 338.417 46.492,338.387 46.775,338.388 47.417 M338.220 53.667 C 338.220 54.262,338.250 54.506,338.287 54.208 C 338.324 53.910,338.324 53.423,338.287 53.125 C 338.250 52.827,338.220 53.071,338.220 53.667 M338.029 56.542 C 338.001 57.307,338.292 57.638,338.582 57.169 C 338.640 57.076,338.576 57.045,338.436 57.099 C 338.244 57.173,338.172 57.029,338.123 56.472 L 338.058 55.750 338.029 56.542 M364.250 59.000 C 364.794 59.550,365.277 60.000,365.323 60.000 C 365.369 60.000,364.961 59.550,364.417 59.000 C 363.872 58.450,363.390 58.000,363.344 58.000 C 363.298 58.000,363.706 58.450,364.250 59.000 M259.000 64.052 C 259.000 64.081,259.244 64.325,259.542 64.594 L 260.083 65.083 259.594 64.542 C 259.138 64.037,259.000 63.923,259.000 64.052 M354.667 65.250 C 354.978 65.571,355.270 65.833,355.315 65.833 C 355.361 65.833,355.144 65.571,354.833 65.250 C 354.522 64.929,354.230 64.667,354.185 64.667 C 354.139 64.667,354.356 64.929,354.667 65.250 M273.045 68.167 C 273.045 68.579,273.078 68.748,273.118 68.542 C 273.157 68.335,273.157 67.998,273.118 67.792 C 273.078 67.585,273.045 67.754,273.045 68.167 M273.167 84.117 C 273.121 92.110,273.140 98.593,273.209 98.524 C 273.279 98.455,273.316 91.915,273.293 83.991 L 273.250 69.583 273.167 84.117 M261.379 71.167 C 261.379 71.579,261.411 71.748,261.451 71.542 C 261.491 71.335,261.491 70.998,261.451 70.792 C 261.411 70.585,261.379 70.754,261.379 71.167 M244.885 74.583 C 244.886 75.133,244.917 75.338,244.954 75.039 C 244.991 74.739,244.990 74.289,244.952 74.039 C 244.914 73.788,244.884 74.033,244.885 74.583 M261.579 86.083 C 261.579 92.958,261.600 95.795,261.625 92.387 C 261.650 88.980,261.650 83.355,261.625 79.887 C 261.600 76.420,261.579 79.208,261.579 86.083 M358.057 76.750 C 358.058 77.483,358.087 77.763,358.122 77.371 C 358.157 76.979,358.157 76.379,358.121 76.037 C 358.085 75.696,358.057 76.017,358.057 76.750 M370.042 76.250 C 370.044 76.617,370.078 76.747,370.118 76.540 C 370.158 76.332,370.156 76.032,370.115 75.873 C 370.073 75.714,370.040 75.883,370.042 76.250 M338.709 78.083 C 338.711 78.450,338.745 78.580,338.785 78.373 C 338.824 78.166,338.823 77.866,338.781 77.706 C 338.739 77.547,338.707 77.717,338.709 78.083 M308.214 78.417 C 308.216 78.875,308.248 79.043,308.286 78.789 C 308.325 78.536,308.324 78.161,308.284 77.956 C 308.244 77.751,308.213 77.958,308.214 78.417 M308.042 80.583 C 308.044 80.950,308.078 81.080,308.118 80.873 C 308.158 80.666,308.156 80.366,308.115 80.206 C 308.073 80.047,308.040 80.217,308.042 80.583 M291.717 81.500 C 291.717 82.004,291.748 82.210,291.786 81.958 C 291.824 81.706,291.824 81.294,291.786 81.042 C 291.748 80.790,291.717 80.996,291.717 81.500 M291.872 83.333 C 291.872 83.654,291.906 83.785,291.948 83.625 C 291.990 83.465,291.990 83.202,291.948 83.042 C 291.906 82.881,291.872 83.012,291.872 83.333 M293.333 88.385 C 293.333 88.414,293.577 88.658,293.875 88.927 L 294.417 89.417 293.927 88.875 C 293.471 88.370,293.333 88.257,293.333 88.385 M363.667 94.583 C 363.262 94.996,362.968 95.333,363.014 95.333 C 363.060 95.333,363.428 94.996,363.833 94.583 C 364.238 94.171,364.532 93.833,364.486 93.833 C 364.440 93.833,364.072 94.171,363.667 94.583 M307.993 94.958 L 307.250 95.750 308.026 95.022 C 308.453 94.622,308.884 94.345,308.984 94.407 C 309.085 94.469,309.167 94.440,309.167 94.343 C 309.167 93.960,308.701 94.204,307.993 94.958 M296.460 99.618 C 296.668 99.658,296.968 99.656,297.127 99.615 C 297.286 99.573,297.117 99.540,296.750 99.542 C 296.383 99.544,296.253 99.578,296.460 99.618 M379.500 112.907 C 379.500 113.039,379.575 113.193,379.667 113.250 C 379.758 113.307,379.833 113.199,379.833 113.010 C 379.833 112.821,379.758 112.667,379.667 112.667 C 379.575 112.667,379.500 112.775,379.500 112.907 M220.500 118.242 C 221.019 118.856,221.144 118.981,221.758 119.500 L 222.250 119.917 221.833 119.424 C 221.315 118.811,221.189 118.685,220.576 118.167 L 220.083 117.750 220.500 118.242 " stroke="none" fill="#7c4c0c" fill-rule="evenodd"></path></g></svg>